<svg id="Layer_1" data-name="Layer 1" xmlns="http://www.w3.org/2000/svg" viewBox="0 0 809.84 711.44"><defs><style>.cls-1{fill:#3b82f6;}</style></defs><title>logo ICON #3b82f6</title><path class="cls-1" d="M536.94,241.47l36.3-52.69a10.69,10.69,0,0,0-2.74-14.87L459.93,97.73a10.7,10.7,0,0,0-14.88,2.74L251.53,381.39a10.7,10.7,0,0,0,2.74,14.88L362.69,471a10.7,10.7,0,0,1,2.74,14.88l-35.16,51.06A10.69,10.69,0,0,0,333,551.76l110.57,76.18a10.69,10.69,0,0,0,14.87-2.74l192.4-279.28A10.7,10.7,0,0,0,648.11,331l-108.43-74.7A10.69,10.69,0,0,1,536.94,241.47ZM429.79,512.59,384.6,481.46a10.7,10.7,0,0,1-2.74-14.88L417,415.53a10.69,10.69,0,0,0-2.74-14.87L367,368.05a10.7,10.7,0,0,1-2.74-14.88l94.62-137.35a10.69,10.69,0,0,1,14.87-2.74l45.2,31.12a10.69,10.69,0,0,1,2.74,14.87l-36.31,52.71a10.69,10.69,0,0,0,2.74,14.87l47.33,32.61a10.7,10.7,0,0,1,2.74,14.88L444.67,509.85A10.7,10.7,0,0,1,429.79,512.59Z"/></svg>