<svg id="Layer_1" data-name="Layer 1" xmlns="http://www.w3.org/2000/svg" xmlns:xlink="http://www.w3.org/1999/xlink" viewBox="0 0 2033.59 634.62"><defs><style>.cls-1{fill:url(#linear-gradient);}.cls-2{fill:url(#linear-gradient-2);}.cls-3{fill:url(#linear-gradient-3);}.cls-4{fill:url(#linear-gradient-4);}.cls-5{fill:url(#linear-gradient-5);}.cls-6{fill:url(#linear-gradient-6);}.cls-7{fill:url(#linear-gradient-7);}.cls-8{fill:url(#linear-gradient-8);}.cls-9{fill:url(#linear-gradient-9);}.cls-10{fill:url(#linear-gradient-10);}.cls-11{fill:url(#linear-gradient-11);}.cls-12{fill:url(#linear-gradient-12);}.cls-13{fill:url(#linear-gradient-13);}.cls-14{fill:url(#linear-gradient-14);}</style><linearGradient id="linear-gradient" x1="563.73" y1="320.98" x2="658.42" y2="320.98" gradientUnits="userSpaceOnUse"><stop offset="0" stop-color="#004cff"/><stop offset="0.04" stop-color="#004fff" stop-opacity="0.99"/><stop offset="0.41" stop-color="#0068ff" stop-opacity="0.88"/><stop offset="0.74" stop-color="#07f" stop-opacity="0.82"/><stop offset="1" stop-color="#007cff" stop-opacity="0.8"/></linearGradient><linearGradient id="linear-gradient-2" x1="681.87" y1="322.6" x2="748.17" y2="322.6" xlink:href="#linear-gradient"/><linearGradient id="linear-gradient-3" x1="769.08" y1="339.77" x2="859.35" y2="339.77" xlink:href="#linear-gradient"/><linearGradient id="linear-gradient-4" x1="893.69" y1="338.92" x2="962.03" y2="338.92" xlink:href="#linear-gradient"/><linearGradient id="linear-gradient-5" x1="979.03" y1="322.6" x2="1045.33" y2="322.6" xlink:href="#linear-gradient"/><linearGradient id="linear-gradient-6" x1="1074.74" y1="321.07" x2="1169.6" y2="321.07" xlink:href="#linear-gradient"/><linearGradient id="linear-gradient-7" x1="1197.99" y1="340.7" x2="1278.57" y2="340.7" xlink:href="#linear-gradient"/><linearGradient id="linear-gradient-8" x1="1302.71" y1="339.68" x2="1380.06" y2="339.68" xlink:href="#linear-gradient"/><linearGradient id="linear-gradient-9" x1="1406.92" y1="319.11" x2="1438.02" y2="319.11" xlink:href="#linear-gradient"/><linearGradient id="linear-gradient-10" x1="1471.51" y1="338.92" x2="1554.98" y2="338.92" xlink:href="#linear-gradient"/><linearGradient id="linear-gradient-11" x1="1582.01" y1="339.68" x2="1670.58" y2="339.68" xlink:href="#linear-gradient"/><linearGradient id="linear-gradient-12" x1="1690.81" y1="339.68" x2="1768.16" y2="339.68" xlink:href="#linear-gradient"/><linearGradient id="linear-gradient-13" x1="1787.88" y1="339.68" x2="1865.23" y2="339.68" xlink:href="#linear-gradient"/><linearGradient id="linear-gradient-14" x1="239.99" y1="315.31" x2="472.07" y2="315.31" xlink:href="#linear-gradient"/></defs><title>logo landscape gradient</title><path class="cls-1" d="M610.31,383.2q-15.13,0-26.27-4.59a57.81,57.81,0,0,1-20.31-14.45l19.21-19.38a47,47,0,0,0,13.43,10.12,36.38,36.38,0,0,0,16.15,3.48q7.65,0,11.81-2.63a8.16,8.16,0,0,0,4.17-7.23,9.16,9.16,0,0,0-3.06-7,28.21,28.21,0,0,0-8.08-4.93q-5-2.13-11.05-4.08a105.91,105.91,0,0,1-12.07-4.76,52.49,52.49,0,0,1-11-6.89,30.6,30.6,0,0,1-8.07-10.2q-3.06-6.12-3.06-15.13,0-11.55,5.52-19.72A35.68,35.68,0,0,1,593,263.18q9.85-4.41,22.95-4.42a64.59,64.59,0,0,1,24.14,4.42,48.75,48.75,0,0,1,18.19,12.24l-19.38,19.21a41.73,41.73,0,0,0-11-8.16,27.73,27.73,0,0,0-12.24-2.72q-6.3,0-9.86,2.21a7,7,0,0,0-3.57,6.29,8.22,8.22,0,0,0,3.06,6.63,29,29,0,0,0,8.07,4.51q5,2,11.05,4a127.1,127.1,0,0,1,12,4.76,47.68,47.68,0,0,1,11,7,31.64,31.64,0,0,1,8.08,10.71,36.32,36.32,0,0,1,3.06,15.64q0,18-12.67,27.88T610.31,383.2Z"/><path class="cls-2" d="M681.87,322.85V298.2h66.3v24.65Zm18.36,58.48V263.86h29.58V381.33Z"/><path class="cls-3" d="M808.86,383a38.11,38.11,0,0,1-20.57-5.61A38.9,38.9,0,0,1,774.18,362a47.26,47.26,0,0,1-5.1-22.19,48.17,48.17,0,0,1,5.1-22.44A38.18,38.18,0,0,1,788.29,302a38.58,38.58,0,0,1,20.57-5.53,35.5,35.5,0,0,1,14.28,2.81,27.71,27.71,0,0,1,10.63,7.9,22.71,22.71,0,0,1,5,11.56v41.82a22.36,22.36,0,0,1-5,11.65,28.86,28.86,0,0,1-10.63,7.9A34.55,34.55,0,0,1,808.86,383Zm6.29-26.35A15.52,15.52,0,0,0,827,351.92a17.08,17.08,0,0,0,4.5-12.24,17.86,17.86,0,0,0-2-8.67,15.63,15.63,0,0,0-5.69-5.95,16.2,16.2,0,0,0-22.61,6,17.33,17.33,0,0,0-2.13,8.58,18.33,18.33,0,0,0,2,8.76,15.17,15.17,0,0,0,5.78,6A16,16,0,0,0,815.15,356.68Zm15.13,24.65V359.06l4.25-20.4-4.25-20.06V298.2h29.07v83.13Z"/><path class="cls-4" d="M893.69,381.33V298.2h29.58v83.13Zm29.58-45.22L910,324.89q4.93-14.1,13.09-21.25t21.25-7.14A31,31,0,0,1,954.64,298a18.53,18.53,0,0,1,7.39,4.76l-17.17,22.95a9.5,9.5,0,0,0-3.82-2.46,15.61,15.61,0,0,0-5.53-.94q-5.78,0-9,3.49T923.27,336.11Z"/><path class="cls-5" d="M979,322.85V298.2h66.3v24.65Zm18.36,58.48V263.86H1027V381.33Z"/><path class="cls-6" d="M1074.74,381.33V260.8h29.92V381.33Zm24.14,0V358.72H1124q7.14,0,11.31-4a13.85,13.85,0,0,0,4.16-10.46,15.08,15.08,0,0,0-1.87-7.56,12.58,12.58,0,0,0-5.36-5.1,17.85,17.85,0,0,0-8.24-1.79h-25.16V307.89h23.29a15.45,15.45,0,0,0,9.77-3q3.82-3,3.83-9.27t-3.83-9.26a15.45,15.45,0,0,0-9.77-3h-23.29V260.8h30.6q11.22,0,19.46,4.25a31.45,31.45,0,0,1,12.67,11.39,30,30,0,0,1,4.42,16.15q0,12.07-8.25,20t-23.88,9.77v-10.2q17.34,2,26.52,11.14t9.18,22.86a32.68,32.68,0,0,1-5.1,18.11,35.27,35.27,0,0,1-14.36,12.49q-9.27,4.59-21.85,4.59Z"/><path class="cls-7" d="M1238.28,383.2a45,45,0,0,1-20.83-4.67A35.18,35.18,0,0,1,1198,346.31V298.2h29.58v48.11a12.41,12.41,0,0,0,1.36,5.95,9.48,9.48,0,0,0,3.74,3.91,11,11,0,0,0,5.61,1.36,10.3,10.3,0,0,0,7.73-3.06,11.18,11.18,0,0,0,3-8.16V298.2h29.58v48.11a36,36,0,0,1-5.1,19.21,35,35,0,0,1-14.2,13A45.36,45.36,0,0,1,1238.28,383.2Z"/><path class="cls-8" d="M1342.32,383.71a56.36,56.36,0,0,1-15-2,64.32,64.32,0,0,1-13.77-5.52,44.18,44.18,0,0,1-10.79-8.08l16.15-16.49a28.49,28.49,0,0,0,9.77,6.63,31.17,31.17,0,0,0,12.16,2.38,12.6,12.6,0,0,0,5.69-1,3.17,3.17,0,0,0,2-2.89,4.52,4.52,0,0,0-2.81-4.16,34.24,34.24,0,0,0-7.31-2.55q-4.5-1.11-9.43-2.72a47.61,47.61,0,0,1-9.52-4.34,20.39,20.39,0,0,1-7.4-7.65q-2.81-4.92-2.8-12.58a23.4,23.4,0,0,1,4.33-14,29.13,29.13,0,0,1,12.16-9.52,44.81,44.81,0,0,1,18.36-3.49,57.25,57.25,0,0,1,20.4,3.66,36.18,36.18,0,0,1,15.64,11l-16.32,16.49a22.24,22.24,0,0,0-9-6.37,26.72,26.72,0,0,0-9-1.79q-3.92,0-5.61,1.11a3.38,3.38,0,0,0-1.7,3q0,2.22,2.8,3.57a37.69,37.69,0,0,0,7.31,2.47q4.5,1.11,9.35,2.8a42.82,42.82,0,0,1,9.35,4.68,22.87,22.87,0,0,1,7.31,7.9q2.81,4.93,2.81,12.75,0,12.42-9.52,19.64T1342.32,383.71Z"/><path class="cls-9" d="M1422.39,288.51a14.84,14.84,0,0,1-11.05-4.5,16.57,16.57,0,0,1,0-22.53,15.9,15.9,0,0,1,22.35,0,16.82,16.82,0,0,1,0,22.53A15,15,0,0,1,1422.39,288.51Zm-14.79,92.82V298.2h29.75v83.13Z"/><path class="cls-10" d="M1471.51,381.33V298.2h29.58v83.13Zm53.89,0V334.41q0-5.78-3.4-9.09a11.89,11.89,0,0,0-8.67-3.32,13.08,13.08,0,0,0-6.37,1.53,10.83,10.83,0,0,0-4.34,4.25,13.37,13.37,0,0,0-1.53,6.63L1489.53,329a32.49,32.49,0,0,1,4.42-17.25,30.15,30.15,0,0,1,12.16-11.22,37.83,37.83,0,0,1,17.59-4A30.58,30.58,0,0,1,1555,327.61v53.72Z"/><path class="cls-11" d="M1629.61,383.2a53.06,53.06,0,0,1-24.65-5.52,43.55,43.55,0,0,1-17-60.35,43.06,43.06,0,0,1,16.24-15.47,47,47,0,0,1,23.2-5.7,45.79,45.79,0,0,1,22.36,5.36,39.28,39.28,0,0,1,15.3,14.79,41.79,41.79,0,0,1,5.52,21.5c0,1.7-.08,3.43-.25,5.19a41.23,41.23,0,0,1-1.11,6l-73.27.34v-19l61.54-.51-13.26,8.33a32.1,32.1,0,0,0-2-11.47,14.9,14.9,0,0,0-5.44-6.89,16,16,0,0,0-9-2.38,17.09,17.09,0,0,0-9.69,2.72,17.62,17.62,0,0,0-6.29,7.65,29.06,29.06,0,0,0-2.21,11.9,28.29,28.29,0,0,0,2.38,12.16,16.79,16.79,0,0,0,6.8,7.56,21.49,21.49,0,0,0,10.88,2.55,26.81,26.81,0,0,0,10.8-2,23.89,23.89,0,0,0,8.41-6.29l15.47,15.47a39.2,39.2,0,0,1-14.87,10.54A52.08,52.08,0,0,1,1629.61,383.2Z"/><path class="cls-12" d="M1730.42,383.71a56.29,56.29,0,0,1-15-2,64.41,64.41,0,0,1-13.78-5.52,44.37,44.37,0,0,1-10.79-8.08L1707,351.58a28.53,28.53,0,0,0,9.78,6.63,31.08,31.08,0,0,0,12.15,2.38,12.68,12.68,0,0,0,5.7-1,3.16,3.16,0,0,0,2-2.89,4.52,4.52,0,0,0-2.8-4.16,34.24,34.24,0,0,0-7.31-2.55q-4.52-1.11-9.44-2.72a47.61,47.61,0,0,1-9.52-4.34,20.36,20.36,0,0,1-7.39-7.65q-2.8-4.92-2.81-12.58a23.47,23.47,0,0,1,4.33-14,29.26,29.26,0,0,1,12.16-9.52,44.81,44.81,0,0,1,18.36-3.49,57.25,57.25,0,0,1,20.4,3.66,36.18,36.18,0,0,1,15.64,11l-16.32,16.49a22.18,22.18,0,0,0-9-6.37,26.72,26.72,0,0,0-9-1.79q-3.91,0-5.61,1.11a3.4,3.4,0,0,0-1.7,3c0,1.48.94,2.67,2.8,3.57a37.58,37.58,0,0,0,7.32,2.47q4.5,1.11,9.35,2.8a43,43,0,0,1,9.35,4.68,22.87,22.87,0,0,1,7.31,7.9q2.8,4.93,2.8,12.75,0,12.42-9.52,19.64T1730.42,383.71Z"/><path class="cls-13" d="M1827.49,383.71a56.36,56.36,0,0,1-15-2,64.53,64.53,0,0,1-13.77-5.52,44.37,44.37,0,0,1-10.79-8.08L1804,351.58a28.53,28.53,0,0,0,9.78,6.63,31.08,31.08,0,0,0,12.15,2.38,12.6,12.6,0,0,0,5.69-1,3.15,3.15,0,0,0,2-2.89,4.52,4.52,0,0,0-2.8-4.16,34.35,34.35,0,0,0-7.32-2.55q-4.5-1.11-9.43-2.72a47.61,47.61,0,0,1-9.52-4.34,20.46,20.46,0,0,1-7.4-7.65q-2.81-4.92-2.8-12.58a23.4,23.4,0,0,1,4.33-14,29.19,29.19,0,0,1,12.16-9.52,44.81,44.81,0,0,1,18.36-3.49,57.25,57.25,0,0,1,20.4,3.66,36.18,36.18,0,0,1,15.64,11l-16.32,16.49a22.24,22.24,0,0,0-9-6.37,26.72,26.72,0,0,0-9-1.79q-3.92,0-5.61,1.11a3.38,3.38,0,0,0-1.7,3c0,1.48.94,2.67,2.8,3.57a37.69,37.69,0,0,0,7.31,2.47q4.51,1.11,9.35,2.8a42.82,42.82,0,0,1,9.35,4.68,22.77,22.77,0,0,1,7.31,7.9q2.8,4.93,2.81,12.75,0,12.42-9.52,19.64T1827.49,383.71Z"/><path class="cls-14" d="M405.4,245.44l20.9-30.34a6.16,6.16,0,0,0-1.58-8.56l-63.66-43.86a6.15,6.15,0,0,0-8.56,1.58L241.08,326a6.17,6.17,0,0,0,1.58,8.57l62.42,43a6.16,6.16,0,0,1,1.58,8.56l-20.25,29.4a6.15,6.15,0,0,0,1.58,8.56l63.66,43.86a6.15,6.15,0,0,0,8.56-1.58L471,305.57A6.15,6.15,0,0,0,469.4,297L407,254A6.15,6.15,0,0,1,405.4,245.44ZM343.71,401.53l-26-17.93a6.15,6.15,0,0,1-1.58-8.56l20.25-29.39a6.14,6.14,0,0,0-1.58-8.56l-27.25-18.78a6.15,6.15,0,0,1-1.57-8.56l54.47-79.08a6.17,6.17,0,0,1,8.57-1.58L395,247a6.15,6.15,0,0,1,1.57,8.56l-20.9,30.34a6.17,6.17,0,0,0,1.58,8.57l27.25,18.77a6.17,6.17,0,0,1,1.58,8.57L352.27,400A6.15,6.15,0,0,1,343.71,401.53Z"/></svg>