<svg id="Layer_1" data-name="Layer 1" xmlns="http://www.w3.org/2000/svg" viewBox="0 0 804.08 711.44"><defs><style>.cls-1{font-size:59.81px;font-family:SourceSansPro-Black, Source Sans Pro;}</style></defs><title>logo classic B</title><path d="M440.36,281l21.27-30.88a6.12,6.12,0,0,0-1.57-8.51l-64.59-44.5a6.11,6.11,0,0,0-8.51,1.57L274.09,362.51a6.13,6.13,0,0,0,1.57,8.51L339,414.65a6.12,6.12,0,0,1,1.57,8.52L320,453.09a6.14,6.14,0,0,0,1.57,8.52l64.59,44.5a6.14,6.14,0,0,0,8.52-1.57l112.2-162.88a6.11,6.11,0,0,0-1.57-8.51l-63.34-43.64A6.11,6.11,0,0,1,440.36,281ZM378.09,438.91l-26.5-18.26a6.11,6.11,0,0,1-1.57-8.51l20.61-29.92a6.12,6.12,0,0,0-1.57-8.52l-27.75-19.12a6.11,6.11,0,0,1-1.57-8.51L395,265.87a6.11,6.11,0,0,1,8.51-1.56L430,282.56a6.12,6.12,0,0,1,1.56,8.51L410.3,322a6.12,6.12,0,0,0,1.57,8.52l27.75,19.12a6.11,6.11,0,0,1,1.57,8.51l-54.58,79.24A6.12,6.12,0,0,1,378.09,438.91Z"/><text class="cls-1" transform="matrix(0.49, -0.87, 0.87, 0.49, 149.95, 246.28)"><tspan xml:space="preserve">STARTBUSINESS .CO .IN                                                     </tspan></text><text class="cls-1" transform="matrix(0.89, 0.46, -0.46, 0.89, 253.79, 590.01)"><tspan xml:space="preserve">EST. 2025                  •                                                              •</tspan></text></svg>