<svg id="Layer_1" data-name="Layer 1" xmlns="http://www.w3.org/2000/svg" viewBox="0 0 809.84 711.44"><defs><style>.cls-1{fill:#eff6ff;}</style></defs><title>logo ICON #eff6ff (Lightest)</title><path class="cls-1" d="M516.94,234.36l36.3-52.69a10.7,10.7,0,0,0-2.74-14.88L439.93,90.62a10.69,10.69,0,0,0-14.88,2.74L231.53,374.28a10.69,10.69,0,0,0,2.74,14.87l108.42,74.69a10.69,10.69,0,0,1,2.74,14.87l-35.16,51.06A10.7,10.7,0,0,0,313,544.65l110.57,76.17a10.68,10.68,0,0,0,14.87-2.74L630.85,338.8a10.69,10.69,0,0,0-2.74-14.87l-108.43-74.7A10.69,10.69,0,0,1,516.94,234.36ZM409.79,505.48,364.6,474.34a10.69,10.69,0,0,1-2.74-14.87L397,408.42a10.71,10.71,0,0,0-2.74-14.88L347,360.93a10.69,10.69,0,0,1-2.74-14.87L438.84,208.7A10.69,10.69,0,0,1,453.71,206l45.2,31.13A10.69,10.69,0,0,1,501.65,252l-36.31,52.7a10.7,10.7,0,0,0,2.74,14.88l47.33,32.61A10.69,10.69,0,0,1,518.15,367L424.67,502.73A10.7,10.7,0,0,1,409.79,505.48Z"/></svg>