<svg id="Layer_1" data-name="Layer 1" xmlns="http://www.w3.org/2000/svg" xmlns:xlink="http://www.w3.org/1999/xlink" viewBox="0 0 804.08 711.44"><defs><style>.cls-1{font-size:59.81px;fill:#fff;font-family:SourceSansPro-Black, Source Sans Pro;}.cls-2{fill:url(#linear-gradient);}.cls-3{fill:url(#linear-gradient-2);}.cls-4{fill:url(#linear-gradient-3);}.cls-5{fill:url(#linear-gradient-4);}.cls-6{fill:url(#linear-gradient-5);}.cls-7{fill:url(#linear-gradient-6);}.cls-8{fill:url(#linear-gradient-7);}.cls-9{fill:url(#linear-gradient-8);}.cls-10{fill:url(#linear-gradient-9);}.cls-11{fill:url(#linear-gradient-10);}.cls-12{fill:url(#linear-gradient-11);}.cls-13{fill:url(#linear-gradient-12);}.cls-14{fill:url(#linear-gradient-13);}.cls-15{fill:url(#linear-gradient-14);}.cls-16{fill:url(#linear-gradient-15);}.cls-17{fill:url(#linear-gradient-16);}.cls-18{fill:url(#linear-gradient-17);}.cls-19{fill:url(#linear-gradient-18);}.cls-20{fill:url(#linear-gradient-19);}.cls-21{fill:url(#linear-gradient-20);}.cls-22{fill:url(#linear-gradient-21);}.cls-23{fill:url(#linear-gradient-22);}.cls-24{fill:url(#linear-gradient-23);}.cls-25{fill:url(#linear-gradient-24);}.cls-26{fill:url(#linear-gradient-25);}.cls-27{fill:url(#linear-gradient-26);}.cls-28{fill:url(#linear-gradient-27);}.cls-29{fill:url(#linear-gradient-28);}.cls-30{fill:url(#linear-gradient-29);}.cls-31{fill:url(#linear-gradient-30);}</style><linearGradient id="linear-gradient" x1="268.14" y1="364.25" x2="503.05" y2="364.25" gradientUnits="userSpaceOnUse"><stop offset="0" stop-color="#004cff"/><stop offset="0.04" stop-color="#004fff" stop-opacity="0.99"/><stop offset="0.41" stop-color="#0068ff" stop-opacity="0.88"/><stop offset="0.74" stop-color="#07f" stop-opacity="0.82"/><stop offset="1" stop-color="#007cff" stop-opacity="0.8"/></linearGradient><linearGradient id="linear-gradient-2" x1="116.9" y1="235.12" x2="156.27" y2="235.12" xlink:href="#linear-gradient"/><linearGradient id="linear-gradient-3" x1="129.57" y1="202.19" x2="173.12" y2="202.19" xlink:href="#linear-gradient"/><linearGradient id="linear-gradient-4" x1="156.72" y1="185.13" x2="201.77" y2="185.13" xlink:href="#linear-gradient"/><linearGradient id="linear-gradient-5" x1="178.72" y1="156.97" x2="228.53" y2="156.97" xlink:href="#linear-gradient"/><linearGradient id="linear-gradient-6" x1="207.54" y1="130.91" x2="245.93" y2="130.91" xlink:href="#linear-gradient"/><linearGradient id="linear-gradient-7" x1="241.74" y1="117.63" x2="282.22" y2="117.63" xlink:href="#linear-gradient"/><linearGradient id="linear-gradient-8" x1="278.56" y1="99.84" x2="316.89" y2="99.84" xlink:href="#linear-gradient"/><linearGradient id="linear-gradient-9" x1="321.31" y1="92.46" x2="352.41" y2="92.46" xlink:href="#linear-gradient"/><linearGradient id="linear-gradient-10" x1="356.52" y1="89.09" x2="369.8" y2="89.09" xlink:href="#linear-gradient"/><linearGradient id="linear-gradient-11" x1="377.37" y1="88.34" x2="410.06" y2="88.34" xlink:href="#linear-gradient"/><linearGradient id="linear-gradient-12" x1="416.18" y1="92.04" x2="447.23" y2="92.04" xlink:href="#linear-gradient"/><linearGradient id="linear-gradient-13" x1="446.8" y1="99.71" x2="482.71" y2="99.71" xlink:href="#linear-gradient"/><linearGradient id="linear-gradient-14" x1="477.45" y1="111.03" x2="515.5" y2="111.03" xlink:href="#linear-gradient"/><linearGradient id="linear-gradient-15" x1="519.56" y1="141.03" x2="531.74" y2="141.03" xlink:href="#linear-gradient"/><linearGradient id="linear-gradient-16" x1="539.3" y1="146.85" x2="577.85" y2="146.85" xlink:href="#linear-gradient"/><linearGradient id="linear-gradient-17" x1="564.55" y1="168.68" x2="604.03" y2="168.68" xlink:href="#linear-gradient"/><linearGradient id="linear-gradient-18" x1="596.19" y1="210.34" x2="608.56" y2="210.34" xlink:href="#linear-gradient"/><linearGradient id="linear-gradient-19" x1="605.71" y1="218.08" x2="643.91" y2="218.08" xlink:href="#linear-gradient"/><linearGradient id="linear-gradient-20" x1="615.58" y1="244.5" x2="664.54" y2="244.5" xlink:href="#linear-gradient"/><linearGradient id="linear-gradient-21" x1="252.72" y1="593.37" x2="293" y2="593.37" xlink:href="#linear-gradient"/><linearGradient id="linear-gradient-22" x1="285.1" y1="607.05" x2="322.17" y2="607.05" xlink:href="#linear-gradient"/><linearGradient id="linear-gradient-23" x1="323.3" y1="614.85" x2="355.28" y2="614.85" xlink:href="#linear-gradient"/><linearGradient id="linear-gradient-24" x1="347.85" y1="633.04" x2="359.82" y2="633.04" xlink:href="#linear-gradient"/><linearGradient id="linear-gradient-25" x1="379.87" y1="621.48" x2="408.85" y2="621.48" xlink:href="#linear-gradient"/><linearGradient id="linear-gradient-26" x1="413.31" y1="618.36" x2="442.2" y2="618.36" xlink:href="#linear-gradient"/><linearGradient id="linear-gradient-27" x1="442.18" y1="612.26" x2="478.57" y2="612.26" xlink:href="#linear-gradient"/><linearGradient id="linear-gradient-28" x1="473.07" y1="597.87" x2="506.98" y2="597.87" xlink:href="#linear-gradient"/><linearGradient id="linear-gradient-29" x1="627.51" y1="395.76" x2="644.98" y2="395.76" xlink:href="#linear-gradient"/><linearGradient id="linear-gradient-30" x1="129.41" y1="400.75" x2="146.88" y2="400.75" xlink:href="#linear-gradient"/></defs><title>logo classic gradient</title><text class="cls-1" transform="translate(148.82 -515.3) rotate(-60.93)"><tspan xml:space="preserve">STARTBUSINESS .CO .IN                                                     </tspan></text><path class="cls-2" d="M435.49,293.64l21.27-30.87a6.13,6.13,0,0,0-1.57-8.51L390.6,209.75a6.14,6.14,0,0,0-8.52,1.57L269.22,375.15a6.13,6.13,0,0,0,1.57,8.52l63.34,43.63a6.12,6.12,0,0,1,1.57,8.51l-20.61,29.93a6.12,6.12,0,0,0,1.57,8.51l64.59,44.5a6.11,6.11,0,0,0,8.51-1.57L502,354.31a6.12,6.12,0,0,0-1.57-8.52l-63.35-43.63A6.13,6.13,0,0,1,435.49,293.64ZM373.22,451.55,346.71,433.3a6.14,6.14,0,0,1-1.57-8.52l20.62-29.92a6.13,6.13,0,0,0-1.57-8.51l-27.75-19.12a6.12,6.12,0,0,1-1.57-8.52l55.24-80.19a6.13,6.13,0,0,1,8.52-1.57l26.5,18.25a6.12,6.12,0,0,1,1.57,8.52L405.43,334.6a6.11,6.11,0,0,0,1.57,8.51l27.75,19.12a6.14,6.14,0,0,1,1.57,8.52L381.73,450A6.12,6.12,0,0,1,373.22,451.55Z"/><path class="cls-3" d="M138.45,246.35c3.28-1.33,6.32-3.61,7.72-6.12,1.51-2.72,1.26-4.36-.26-5.21s-3.1.54-5.85,2.78L135.93,241c-3.5,2.85-8.36,4.32-13.27,1.59-5.81-3.23-7.66-11.1-3.53-18.52A18.73,18.73,0,0,1,130,215.34L133.1,223a12.82,12.82,0,0,0-6.23,5.43c-1.22,2.19-1.19,4,.32,4.83s3.27-.71,6.19-3.13l3.92-3.23c4-3.3,8.29-4.08,13-1.46,5.75,3.2,8.2,10.85,3.5,19.32a22.55,22.55,0,0,1-12,10.16Z"/><path class="cls-4" d="M142.57,204.18l-6,8.33-7-5,18.09-25,7,5-6,8.34,24.52,17.73-6,8.34Z"/><path class="cls-5" d="M187,184.46l-7.36,8,4.78,7-7.12,7.75-20.62-35,8.41-9.16,36.64,17.56-7.36,8Zm-7.12-4-2.42-1.34c-3.38-1.8-7.51-4.29-11-6.22l-.16.18c2.34,3.29,5.13,7.14,7.21,10.36l1.54,2.3Z"/><path class="cls-6" d="M219.73,165.68,206.22,160l-3,2.53,8.37,10-7.89,6.61-25-29.81L190,139.86c6.42-5.37,13.77-7.78,20-.35,3.57,4.26,4,8.68,2.4,12.65l16.14,6.14ZM198,156.28l2.84-2.38c3.12-2.61,3.62-5.37,1.47-7.94s-4.5-2-7.62.6l-2.84,2.38Z"/><path class="cls-7" d="M220.86,127.4,212.22,133l-4.68-7.24L233.47,109l4.68,7.23-8.65,5.58,16.43,25.43-8.65,5.58Z"/><path class="cls-8" d="M241.74,104.47l12.63-6c7.34-3.51,14.15-4.51,17.45,2.4a8.47,8.47,0,0,1-2.21,10.34l.1.21c5.43-1.4,9.15,0,11.37,4.65,3.45,7.23-1.31,13.35-8.87,17l-13.71,6.55Zm19,7.89c3-1.44,3.7-3.63,2.67-5.79s-2.85-2.35-5.87-.9l-3.13,1.49,3.2,6.69Zm7.4,13.83c3.67-1.76,4.73-4,3.49-6.58s-3.48-2.84-7.15-1.08l-3.78,1.8,3.66,7.66Z"/><path class="cls-9" d="M278.56,87.69l9.81-3.1,6.4,20.31c2.09,6.62,4.55,8.47,8.43,7.25s4.95-4.19,2.86-10.81L299.66,81l9.47-3,6,19.16c4,12.67,1.07,20.11-9.31,23.38s-17.27-1.07-21.26-13.74Z"/><path class="cls-10" d="M328.52,101.49c3.09,1.7,6.78,2.64,9.6,2.14,3.07-.53,4.19-1.76,3.89-3.47s-2.37-2.08-5.83-2.81l-5.13-1.16c-4.41-.93-8.61-3.78-9.58-9.31-1.14-6.54,3.81-12.93,12.17-14.4a18.68,18.68,0,0,1,13.62,2.9l-3.95,7.25c-2.91-1.37-5.31-1.93-8.14-1.43-2.48.43-3.85,1.59-3.55,3.29s2.61,2.1,6.32,2.84l5,1c5.1,1,8.38,3.88,9.31,9.18,1.14,6.48-3.27,13.2-12.81,14.87A22.51,22.51,0,0,1,324,109.45Z"/><path class="cls-11" d="M356.52,70.11l10.25-.8,3,38.76-10.26.8Z"/><path class="cls-12" d="M378.49,68.45l10.52.31,8.11,17.58,3.46,8.84h.23a141.3,141.3,0,0,1-.88-14.87l.32-11.24,9.81.28-1.12,38.87-10.53-.31-8.1-17.65-3.46-8.77h-.24a148,148,0,0,1,.89,14.87l-.33,11.24-9.8-.28Z"/><path class="cls-13" d="M422.43,70.78l24.8,4-1.39,8.5L431.2,80.94l-1,6,12.52,2-1.39,8.5-12.51-2-1.12,6.85L443,104.79l-1.38,8.5-25.39-4.14Z"/><path class="cls-14" d="M454.39,104.26c2,2.89,4.93,5.35,7.68,6.15,3,.87,4.54.26,5-1.41s-1.21-2.9-4-5.08l-4.08-3.3c-3.56-2.78-6.08-7.18-4.51-12.58,1.84-6.38,9.1-9.94,17.26-7.57a18.69,18.69,0,0,1,11,8.59L476,93.83A12.82,12.82,0,0,0,469.28,89c-2.41-.7-4.15-.27-4.63,1.39s1.42,3,4.43,5.33l4,3.1c4.12,3.19,5.83,7.17,4.33,12.34-1.83,6.32-8.75,10.41-18.05,7.72a22.55,22.55,0,0,1-12.58-9.44Z"/><path class="cls-15" d="M485.59,114.2c1.68,3.11,4.27,5.89,6.91,7,2.87,1.21,4.47.78,5.15-.82s-.87-3-3.38-5.51l-3.67-3.76c-3.21-3.18-5.19-7.85-3-13,2.58-6.12,10.21-8.81,18-5.5a18.71,18.71,0,0,1,9.87,9.82l-7.25,4a12.74,12.74,0,0,0-6.07-5.61c-2.31-1-4.09-.76-4.77.84s1.06,3.17,3.78,5.81l3.63,3.55c3.72,3.65,4.95,7.8,2.85,12.76-2.56,6.06-9.91,9.32-18.84,5.54a22.51,22.51,0,0,1-11.38-10.84Z"/><path class="cls-16" d="M528.86,135.71a6.22,6.22,0,1,1-8.33,2.24A6,6,0,0,1,528.86,135.71Z"/><path class="cls-17" d="M571.43,131a17,17,0,0,1,6.42,11.2l-8.3,1.72c-.53-2.49-1.3-4.26-3.31-5.76-3.74-2.79-9.41-1.79-13.63,3.86-4.36,5.85-4.11,11.11-.09,14.11a8.94,8.94,0,0,0,7.33,1.59l.78,8.35a16.28,16.28,0,0,1-13.5-2.91C539,157.11,536,146.68,544,136.05,551.76,125.59,563.38,125,571.43,131Z"/><path class="cls-18" d="M571.41,156c8.93-9.17,19.16-9.23,26.88-1.73s7.91,17.79-1,26.92-19.41,9.49-27.12,2S562.49,165.19,571.41,156Zm18.36,17.85c4.92-5.06,5.7-10,2.35-13.23s-8.24-2.34-13.16,2.72-6,10.24-2.6,13.49S584.85,178.92,589.77,173.86Z"/><path class="cls-19" d="M607.34,206.6a6.22,6.22,0,1,1-8.57-1A6,6,0,0,1,607.34,206.6Z"/><path class="cls-20" d="M638.29,203.16l5.62,8.62L611.32,233l-5.61-8.63Z"/><path class="cls-21" d="M650.24,221.62,655,231l-11.57,15.53-6.1,7.26.11.21a140.69,140.69,0,0,1,12.62-7.89l10-5.09,4.44,8.74-34.65,17.61L625.12,258l11.61-15.56,6-7.24-.1-.21a145.07,145.07,0,0,1-12.63,7.89L620,248l-4.44-8.74Z"/><path class="cls-22" d="M270.73,570.18,293,581.82l-4,7.63-13.15-6.87L273,588l11.23,5.87-4,7.64-11.23-5.88-3.22,6.15,13.68,7.15-4,7.63-22.8-11.91Z"/><path class="cls-23" d="M293,610.9c1.84,3,4.59,5.64,7.29,6.6,2.93,1,4.51.53,5.1-1.1s-1-3-3.7-5.32l-3.88-3.54c-3.38-3-5.63-7.53-3.74-12.83,2.23-6.25,9.69-9.37,17.69-6.52a18.68,18.68,0,0,1,10.42,9.24l-7,4.36a12.83,12.83,0,0,0-6.38-5.26c-2.37-.84-4.13-.52-4.72,1.11s1.24,3.11,4.11,5.59l3.82,3.33c3.92,3.43,5.39,7.51,3.58,12.58-2.21,6.2-9.36,9.87-18.49,6.62a22.53,22.53,0,0,1-12-10.18Z"/><path class="cls-24" d="M333.37,604.26l-10.07-2.13,1.78-8.42,30.2,6.36-1.78,8.43-10.07-2.12L337.19,636l-10.07-2.12Z"/><path class="cls-25" d="M354.63,626.87a6.23,6.23,0,1,1-6.73,5.4A6,6,0,0,1,354.63,626.87Z"/><path class="cls-26" d="M381.17,635.13c8.71-8.52,15.45-15.07,15.3-20.22-.11-3.4-2.07-5-4.82-4.88-2.51.08-4.37,1.93-6.11,3.78l-5.67-5.33c3.82-4.31,7.35-6.33,13-6.5,7.65-.24,13.18,4.5,13.41,12,.19,6.09-5.35,13-10.33,18.38a63.08,63.08,0,0,1,6.32-.67l6.34-.19.27,8.61-27.51.84Z"/><path class="cls-27" d="M413.83,620.51c-2.14-12.8,2.45-20.17,10.71-21.55s15,4.16,17.13,16.9-2.38,20.53-10.64,21.91S416,633.32,413.83,620.51Zm18.29-3c-1.66-9.91-3.92-11.11-6.28-10.72s-4.11,2.27-2.45,12.18,4,11.46,6.33,11.07S433.77,627.37,432.12,617.46Z"/><path class="cls-28" d="M450.55,627.36c6.12-10.55,10.87-18.66,9.34-23.57-1-3.26-3.32-4.23-5.95-3.41-2.4.74-3.69,3-4.87,5.27L442.18,602c2.53-5.17,5.39-8.07,10.76-9.73,7.31-2.28,13.9.81,16.14,8,1.81,5.82-1.69,13.92-5,20.48a61.33,61.33,0,0,1,5.92-2.34l6.05-1.88,2.56,8.22L452.29,633Z"/><path class="cls-29" d="M484.93,610.2c2.92.89,6,1.18,8.45,0,3.26-1.51,4.44-3.78,3-6.82s-4-3.54-6.74-2.27c-1.84.85-2.56,1.58-4,3.85l-5.22-.74-7.37-18.08,20.39-9.5,3.63,7.81-12.36,5.76,1.89,5.19a9.59,9.59,0,0,1,3-2.06c6-2.77,12.63-1.79,16,5.48,3.59,7.7-.36,14.95-7.35,18.21a18.74,18.74,0,0,1-14.75.93Z"/><path class="cls-30" d="M635.54,404.11A8.38,8.38,0,1,1,645,396.5,8.42,8.42,0,0,1,635.54,404.11Z"/><path class="cls-31" d="M137.28,392.42a8.38,8.38,0,1,1-7.82,9.23A8.4,8.4,0,0,1,137.28,392.42Z"/></svg>