<svg id="Layer_1" data-name="Layer 1" xmlns="http://www.w3.org/2000/svg" viewBox="0 0 809.84 711.44"><defs><style>.cls-1{fill:#1e3a8a;}</style></defs><title>logo ICON #1e3a8a (Darkest)</title><path class="cls-1" d="M533.67,234.36,570,181.67a10.7,10.7,0,0,0-2.74-14.88L456.66,90.62a10.69,10.69,0,0,0-14.88,2.74L248.26,374.28A10.69,10.69,0,0,0,251,389.15l108.42,74.69a10.69,10.69,0,0,1,2.74,14.87L327,529.77a10.7,10.7,0,0,0,2.74,14.88l110.57,76.17a10.68,10.68,0,0,0,14.87-2.73L647.58,338.8a10.69,10.69,0,0,0-2.74-14.87l-108.43-74.7A10.69,10.69,0,0,1,533.67,234.36ZM426.52,505.48l-45.19-31.14a10.68,10.68,0,0,1-2.74-14.87l35.17-51.05A10.71,10.71,0,0,0,411,393.54l-47.34-32.61A10.68,10.68,0,0,1,361,346.06L455.57,208.7A10.69,10.69,0,0,1,470.44,206l45.19,31.13A10.69,10.69,0,0,1,518.38,252l-36.31,52.7a10.7,10.7,0,0,0,2.74,14.88l47.33,32.61A10.69,10.69,0,0,1,534.88,367L441.4,502.74A10.7,10.7,0,0,1,426.52,505.48Z"/></svg>