<svg id="Layer_1" data-name="Layer 1" xmlns="http://www.w3.org/2000/svg" viewBox="0 0 809.84 711.44"><defs><style>.cls-1{fill:#bfdbfe;}</style></defs><title>logo ICON #bfdbfe</title><path class="cls-1" d="M478.43,210.36l36.3-52.69A10.7,10.7,0,0,0,512,142.79L401.42,66.62a10.69,10.69,0,0,0-14.88,2.74L193,350.28a10.69,10.69,0,0,0,2.74,14.87l108.42,74.69a10.69,10.69,0,0,1,2.74,14.87l-35.16,51.06a10.7,10.7,0,0,0,2.74,14.88l110.57,76.17a10.68,10.68,0,0,0,14.87-2.73L592.34,314.8a10.69,10.69,0,0,0-2.74-14.87l-108.43-74.7A10.69,10.69,0,0,1,478.43,210.36ZM371.28,481.48l-45.19-31.14a10.69,10.69,0,0,1-2.74-14.87l35.17-51.05a10.71,10.71,0,0,0-2.74-14.88l-47.33-32.61a10.69,10.69,0,0,1-2.74-14.87L400.33,184.7A10.69,10.69,0,0,1,415.2,182l45.2,31.13A10.69,10.69,0,0,1,463.14,228l-36.31,52.7a10.7,10.7,0,0,0,2.74,14.88l47.33,32.61A10.69,10.69,0,0,1,479.64,343L386.16,478.74A10.7,10.7,0,0,1,371.28,481.48Z"/></svg>