<svg id="Layer_1" data-name="Layer 1" xmlns="http://www.w3.org/2000/svg" viewBox="0 0 809.84 711.44"><defs><style>.cls-1{font-size:89px;font-family:Outfit-ExtraBold, Outfit;font-weight:700;}.cls-1,.cls-2{fill:#2563eb;}</style></defs><title>logo text  #2563eb (Primary)</title><text class="cls-1" transform="translate(52.81 540.57)">StartBusiness</text><path class="cls-2" d="M438.45,249.26l16-23.29a5.38,5.38,0,0,0-1.38-7.47l-49.74-34.27a5.37,5.37,0,0,0-7.47,1.38L308,313.21a5.38,5.38,0,0,0,1.38,7.48l48.76,33.58a5.38,5.38,0,0,1,1.37,7.48L344,384.29a5.37,5.37,0,0,0,1.38,7.47L395.1,426a5.38,5.38,0,0,0,7.47-1.38L490,297.8a5.37,5.37,0,0,0-1.38-7.48l-48.76-33.59A5.37,5.37,0,0,1,438.45,249.26Zm-49.65,124-19.86-13.68a5.37,5.37,0,0,1-1.38-7.47l15.53-22.53a5.39,5.39,0,0,0-1.38-7.48l-20.83-14.35a5.37,5.37,0,0,1-1.38-7.48l42.7-62a5.38,5.38,0,0,1,7.47-1.38l19.86,13.68a5.38,5.38,0,0,1,1.38,7.47l-16.05,23.29a5.38,5.38,0,0,0,1.38,7.48l20.83,14.35a5.38,5.38,0,0,1,1.38,7.48l-42.18,61.23A5.37,5.37,0,0,1,388.8,373.3Z"/></svg>