<svg id="Layer_1" data-name="Layer 1" xmlns="http://www.w3.org/2000/svg" viewBox="0 0 2033.59 634.62"><defs><style>.cls-1{font-size:170px;font-family:Outfit-ExtraBold, Outfit;font-weight:700;}.cls-1,.cls-2{fill:#2563eb;}</style></defs><title>logo landscape primary</title><text class="cls-1" transform="translate(561.86 348.65)">StartBusiness</text><path class="cls-2" d="M370.24,214.14l20.9-30.33a6.15,6.15,0,0,0-1.58-8.56L325.9,131.39a6.14,6.14,0,0,0-8.56,1.58L205.92,294.7a6.17,6.17,0,0,0,1.58,8.57l62.42,43a6.17,6.17,0,0,1,1.58,8.57l-20.25,29.4a6.16,6.16,0,0,0,1.58,8.56l63.66,43.86a6.15,6.15,0,0,0,8.56-1.58L435.82,274.28a6.16,6.16,0,0,0-1.57-8.57l-62.43-43A6.16,6.16,0,0,1,370.24,214.14Zm-61.69,156.1-26-17.93a6.15,6.15,0,0,1-1.57-8.56l20.24-29.39a6.16,6.16,0,0,0-1.57-8.57L272.38,287a6.17,6.17,0,0,1-1.58-8.57l54.48-79.07a6.15,6.15,0,0,1,8.56-1.58l26,17.92a6.15,6.15,0,0,1,1.58,8.56l-20.91,30.34a6.17,6.17,0,0,0,1.58,8.57L369.36,282a6.15,6.15,0,0,1,1.58,8.56l-53.82,78.14A6.17,6.17,0,0,1,308.55,370.24Z"/></svg>