<svg id="Layer_1" data-name="Layer 1" xmlns="http://www.w3.org/2000/svg" viewBox="0 0 809.84 711.44"><defs><style>.cls-1{font-size:89px;font-family:Outfit-ExtraBold, Outfit;font-weight:700;}.cls-1,.cls-2{fill:#1e3a8a;}</style></defs><title>logo txt #1e3a8a (Darkest)</title><text class="cls-1" transform="translate(78.68 557.34)">StartBusiness</text><path class="cls-2" d="M464,266.42l16.59-24.09a4.9,4.9,0,0,0-1.25-6.8l-50.54-34.81A4.88,4.88,0,0,0,422,202l-88.46,128.4a4.89,4.89,0,0,0,1.26,6.8l49.55,34.14a4.89,4.89,0,0,1,1.26,6.8l-16.08,23.34a4.88,4.88,0,0,0,1.26,6.79l50.54,34.82a4.88,4.88,0,0,0,6.79-1.25l87.95-127.65a4.89,4.89,0,0,0-1.26-6.8l-49.56-34.14A4.9,4.9,0,0,1,464,266.42Zm-49,123.92-20.66-14.23a4.89,4.89,0,0,1-1.26-6.8L409.23,346a4.89,4.89,0,0,0-1.25-6.8l-21.64-14.91a4.89,4.89,0,0,1-1.25-6.8l43.25-62.78a4.89,4.89,0,0,1,6.8-1.25l20.66,14.22a4.9,4.9,0,0,1,1.25,6.8l-16.6,24.09a4.89,4.89,0,0,0,1.26,6.8l21.63,14.91a4.88,4.88,0,0,1,1.25,6.8l-42.73,62A4.88,4.88,0,0,1,415.07,390.34Z"/></svg>