<svg id="Layer_1" data-name="Layer 1" xmlns="http://www.w3.org/2000/svg" viewBox="0 0 2033.59 634.62"><defs><style>.cls-1{font-size:170px;font-family:Outfit-ExtraBold, Outfit;font-weight:700;}.cls-1,.cls-2{fill:#1e3a8a;}</style></defs><title>logo landscape dark</title><text class="cls-1" transform="translate(566.86 354.15)">StartBusiness</text><path class="cls-2" d="M404.23,219.65l20.89-30.34a6.15,6.15,0,0,0-1.57-8.56l-63.66-43.86a6.17,6.17,0,0,0-8.57,1.58L239.91,300.21a6.15,6.15,0,0,0,1.57,8.56l62.43,43a6.15,6.15,0,0,1,1.57,8.56l-20.24,29.4a6.15,6.15,0,0,0,1.58,8.56l63.65,43.86a6.17,6.17,0,0,0,8.57-1.58L469.81,279.78a6.15,6.15,0,0,0-1.58-8.56l-62.43-43A6.15,6.15,0,0,1,404.23,219.65ZM342.54,375.74l-26-17.92a6.17,6.17,0,0,1-1.58-8.57l20.25-29.39a6.15,6.15,0,0,0-1.58-8.56l-27.25-18.78a6.15,6.15,0,0,1-1.58-8.56l54.48-79.08a6.15,6.15,0,0,1,8.56-1.58l26,17.92a6.15,6.15,0,0,1,1.58,8.56l-20.9,30.35a6.15,6.15,0,0,0,1.58,8.56l27.25,18.78a6.15,6.15,0,0,1,1.57,8.56L351.1,374.16A6.15,6.15,0,0,1,342.54,375.74Z"/></svg>