<svg id="Layer_1" data-name="Layer 1" xmlns="http://www.w3.org/2000/svg" viewBox="0 0 809.84 711.44"><defs><style>.cls-1{fill:#2563eb;}</style></defs><title>logo ICON #2563eb (Primary)</title><path class="cls-1" d="M478.43,241.47l36.3-52.69A10.69,10.69,0,0,0,512,173.91L401.42,97.73a10.7,10.7,0,0,0-14.88,2.74L193,381.39a10.7,10.7,0,0,0,2.74,14.88L304.18,471a10.7,10.7,0,0,1,2.74,14.88l-35.16,51.06a10.69,10.69,0,0,0,2.74,14.87l110.57,76.18a10.69,10.69,0,0,0,14.87-2.74l192.4-279.28A10.7,10.7,0,0,0,589.6,331l-108.43-74.7A10.69,10.69,0,0,1,478.43,241.47ZM371.28,512.59l-45.19-31.13a10.7,10.7,0,0,1-2.74-14.88l35.17-51.05a10.69,10.69,0,0,0-2.74-14.87l-47.33-32.61a10.7,10.7,0,0,1-2.74-14.88l94.62-137.35a10.69,10.69,0,0,1,14.87-2.74l45.2,31.12a10.69,10.69,0,0,1,2.74,14.87l-36.31,52.71a10.69,10.69,0,0,0,2.74,14.87l47.33,32.61a10.7,10.7,0,0,1,2.74,14.88L386.16,509.85A10.7,10.7,0,0,1,371.28,512.59Z"/></svg>