<svg id="Layer_1" data-name="Layer 1" xmlns="http://www.w3.org/2000/svg" viewBox="0 0 809.84 711.44"><defs><style>.cls-1{font-size:89px;font-family:Outfit-ExtraBold, Outfit;font-weight:700;}</style></defs><title>logo text B</title><text class="cls-1" transform="translate(60.97 564.3)">StartBusiness</text><path d="M446.33,273.38l16.59-24.08a4.89,4.89,0,0,0-1.25-6.8l-50.54-34.82a4.89,4.89,0,0,0-6.8,1.25L315.87,337.34a4.89,4.89,0,0,0,1.26,6.8l49.55,34.13a4.89,4.89,0,0,1,1.26,6.8l-16.08,23.34a4.89,4.89,0,0,0,1.26,6.8L403.65,450a4.89,4.89,0,0,0,6.8-1.25L498.4,321.12a4.89,4.89,0,0,0-1.26-6.8l-49.56-34.14A4.89,4.89,0,0,1,446.33,273.38Zm-49,123.92L376.7,383.07a4.89,4.89,0,0,1-1.26-6.8l16.08-23.33a4.89,4.89,0,0,0-1.25-6.8l-21.64-14.9a4.9,4.9,0,0,1-1.25-6.8l43.25-62.78a4.89,4.89,0,0,1,6.8-1.26l20.66,14.23a4.89,4.89,0,0,1,1.25,6.8l-16.6,24.09a4.89,4.89,0,0,0,1.26,6.8l21.63,14.9a4.89,4.89,0,0,1,1.25,6.8l-42.73,62A4.88,4.88,0,0,1,397.35,397.3Z"/></svg>