<svg id="Layer_1" data-name="Layer 1" xmlns="http://www.w3.org/2000/svg" viewBox="0 0 809.84 711.44"><defs><style>.cls-1{font-size:89px;font-family:Outfit-ExtraBold, Outfit;font-weight:700;}.cls-1,.cls-2{fill:#fff;}</style></defs><title>logo text W</title><text class="cls-1" transform="translate(60.97 558.43)">StartBusiness</text><path class="cls-2" d="M446.33,267.51l16.59-24.08a4.89,4.89,0,0,0-1.25-6.8l-50.54-34.82a4.89,4.89,0,0,0-6.8,1.26l-88.46,128.4a4.89,4.89,0,0,0,1.26,6.8l49.55,34.14a4.88,4.88,0,0,1,1.26,6.79l-16.08,23.34a4.89,4.89,0,0,0,1.26,6.8l50.53,34.82a4.89,4.89,0,0,0,6.8-1.25L498.4,315.25a4.88,4.88,0,0,0-1.26-6.79l-49.56-34.15A4.89,4.89,0,0,1,446.33,267.51Zm-49,123.93L376.7,377.21a4.89,4.89,0,0,1-1.26-6.8l16.08-23.34a4.88,4.88,0,0,0-1.25-6.79l-21.64-14.91a4.89,4.89,0,0,1-1.25-6.8l43.25-62.78a4.88,4.88,0,0,1,6.8-1.25l20.66,14.22a4.89,4.89,0,0,1,1.25,6.8l-16.6,24.09a4.89,4.89,0,0,0,1.26,6.8l21.63,14.9a4.9,4.9,0,0,1,1.25,6.8l-42.73,62A4.89,4.89,0,0,1,397.35,391.44Z"/></svg>