<svg id="Layer_1" data-name="Layer 1" xmlns="http://www.w3.org/2000/svg" viewBox="0 0 2033.59 634.62"><defs><style>.cls-1{font-size:170px;font-family:Outfit-ExtraBold, Outfit;font-weight:700;}.cls-1,.cls-2{fill:#fff;}</style></defs><title>logo landscape W</title><text class="cls-1" transform="translate(561.86 381.94)">StartBusiness</text><path class="cls-2" d="M402.23,247.44l20.89-30.34a6.15,6.15,0,0,0-1.57-8.56l-63.66-43.86a6.17,6.17,0,0,0-8.57,1.58L237.91,328a6.16,6.16,0,0,0,1.57,8.57l62.43,43a6.15,6.15,0,0,1,1.57,8.56l-20.24,29.4a6.15,6.15,0,0,0,1.58,8.56l63.65,43.86a6.17,6.17,0,0,0,8.57-1.58L467.81,307.57a6.15,6.15,0,0,0-1.58-8.56L403.8,256A6.15,6.15,0,0,1,402.23,247.44ZM340.54,403.53l-26-17.93a6.15,6.15,0,0,1-1.58-8.56l20.25-29.39a6.15,6.15,0,0,0-1.58-8.56l-27.25-18.78a6.15,6.15,0,0,1-1.58-8.56l54.48-79.08a6.15,6.15,0,0,1,8.56-1.58l26,17.92a6.15,6.15,0,0,1,1.58,8.56l-20.9,30.34a6.17,6.17,0,0,0,1.58,8.57l27.25,18.77a6.16,6.16,0,0,1,1.57,8.57L349.1,402A6.15,6.15,0,0,1,340.54,403.53Z"/></svg>