<svg id="Layer_1" data-name="Layer 1" xmlns="http://www.w3.org/2000/svg" viewBox="0 0 809.84 711.44"><defs><style>.cls-1{font-size:89px;font-family:Outfit-ExtraBold, Outfit;font-weight:700;}.cls-1,.cls-2{fill:#1d4ed8;}</style></defs><title>logo text #1d4ed8</title><text class="cls-1" transform="translate(68.7 564.3)">StartBusiness</text><path class="cls-2" d="M454.06,273.38l16.59-24.08a4.89,4.89,0,0,0-1.25-6.8l-50.54-34.82a4.89,4.89,0,0,0-6.8,1.25L323.6,337.34a4.89,4.89,0,0,0,1.26,6.8l49.55,34.13a4.89,4.89,0,0,1,1.26,6.8l-16.08,23.34a4.89,4.89,0,0,0,1.26,6.8L411.38,450a4.89,4.89,0,0,0,6.8-1.25l87.94-127.66a4.88,4.88,0,0,0-1.25-6.8l-49.56-34.14A4.89,4.89,0,0,1,454.06,273.38Zm-49,123.92-20.65-14.23a4.89,4.89,0,0,1-1.26-6.8l16.08-23.33a4.89,4.89,0,0,0-1.25-6.8l-21.64-14.9a4.9,4.9,0,0,1-1.25-6.8l43.25-62.78a4.89,4.89,0,0,1,6.8-1.26l20.66,14.23a4.89,4.89,0,0,1,1.25,6.8l-16.6,24.09a4.89,4.89,0,0,0,1.26,6.8l21.63,14.9a4.89,4.89,0,0,1,1.25,6.8l-42.73,62A4.88,4.88,0,0,1,405.08,397.3Z"/></svg>