<svg id="Layer_1" data-name="Layer 1" xmlns="http://www.w3.org/2000/svg" viewBox="0 0 804.08 711.44"><defs><style>.cls-1,.cls-3{font-size:59.81px;font-family:SourceSansPro-Black, Source Sans Pro;}.cls-1{fill:#1e3a8a;}.cls-2,.cls-3{fill:#2563eb;}</style></defs><title>logo classic  #2563eb (Primary)</title><text class="cls-1" transform="translate(161.65 1023.21) rotate(-60.93)"><tspan xml:space="preserve">STARTBUSINESS .CO .IN                                                     </tspan></text><path class="cls-2" d="M451.23,280.32l21.26-30.88a6.12,6.12,0,0,0-1.56-8.51l-64.59-44.5a6.12,6.12,0,0,0-8.52,1.57L285,361.83a6.12,6.12,0,0,0,1.57,8.51L349.87,414a6.13,6.13,0,0,1,1.57,8.52l-20.61,29.92a6.11,6.11,0,0,0,1.57,8.51L397,505.42a6.12,6.12,0,0,0,8.51-1.56L517.71,341a6.12,6.12,0,0,0-1.57-8.51l-63.35-43.64A6.12,6.12,0,0,1,451.23,280.32ZM389,438.23,362.45,420a6.14,6.14,0,0,1-1.57-8.52l20.62-29.91a6.14,6.14,0,0,0-1.57-8.52L352.17,353.9a6.12,6.12,0,0,1-1.56-8.51l55.24-80.2a6.13,6.13,0,0,1,8.51-1.57l26.51,18.26a6.11,6.11,0,0,1,1.57,8.51l-21.27,30.88a6.13,6.13,0,0,0,1.56,8.52l27.76,19.12a6.13,6.13,0,0,1,1.57,8.51l-54.59,79.24A6.12,6.12,0,0,1,389,438.23Z"/><text class="cls-3" transform="translate(160.82 245.6) rotate(-60.93)"><tspan xml:space="preserve">STARTBUSINESS .CO .IN                                                     </tspan></text><text class="cls-3" transform="translate(264.65 589.32) rotate(27.59)"><tspan xml:space="preserve">EST. 2025                  •                                                              •</tspan></text></svg>