<svg id="Layer_1" data-name="Layer 1" xmlns="http://www.w3.org/2000/svg" viewBox="0 0 804.08 711.44"><defs><style>.cls-1,.cls-3{font-size:59.81px;font-family:SourceSansPro-Black, Source Sans Pro;}.cls-1{fill:#1e3a8a;}.cls-2,.cls-3{fill:#93c5fd;}</style></defs><title>logo classic #60a5fa</title><text class="cls-1" transform="translate(161.65 -536.95) rotate(-60.93)"><tspan xml:space="preserve">STARTBUSINESS .CO .IN                                                     </tspan></text><path class="cls-2" d="M450.52,282.64l21.27-30.87a6.13,6.13,0,0,0-1.57-8.51l-64.59-44.5a6.13,6.13,0,0,0-8.52,1.56L284.25,364.16a6.12,6.12,0,0,0,1.57,8.51l63.34,43.63a6.12,6.12,0,0,1,1.57,8.51l-20.61,29.93a6.12,6.12,0,0,0,1.57,8.51l64.59,44.5a6.11,6.11,0,0,0,8.51-1.57L517,343.31a6.11,6.11,0,0,0-1.57-8.51l-63.35-43.64A6.13,6.13,0,0,1,450.52,282.64ZM388.25,440.56,361.74,422.3a6.14,6.14,0,0,1-1.57-8.52l20.62-29.92a6.13,6.13,0,0,0-1.57-8.51l-27.75-19.12a6.11,6.11,0,0,1-1.57-8.51l55.24-80.2a6.13,6.13,0,0,1,8.52-1.57l26.5,18.26a6.11,6.11,0,0,1,1.57,8.51L420.46,323.6a6.11,6.11,0,0,0,1.57,8.51l27.75,19.13a6.13,6.13,0,0,1,1.57,8.51L396.76,439A6.13,6.13,0,0,1,388.25,440.56Z"/><text class="cls-3" transform="translate(160.11 247.93) rotate(-60.93)"><tspan xml:space="preserve">STARTBUSINESS .CO .IN                                                     </tspan></text><text class="cls-3" transform="translate(263.94 591.65) rotate(27.59)"><tspan xml:space="preserve">EST. 2025                  •                                                              •</tspan></text></svg>