<svg id="Layer_1" data-name="Layer 1" xmlns="http://www.w3.org/2000/svg" viewBox="0 0 809.84 711.44"><defs><style>.cls-1{fill:#fff;}</style></defs><title>logo icon WHITE</title><path class="cls-1" d="M516.94,289.23l36.3-52.69a10.69,10.69,0,0,0-2.74-14.87L439.93,145.49a10.71,10.71,0,0,0-14.88,2.74L231.53,429.15A10.7,10.7,0,0,0,234.27,444l108.42,74.68a10.7,10.7,0,0,1,2.74,14.88l-35.16,51.06A10.69,10.69,0,0,0,313,599.52L423.58,675.7A10.69,10.69,0,0,0,438.45,673l192.4-279.28a10.7,10.7,0,0,0-2.74-14.88L519.68,304.11A10.7,10.7,0,0,1,516.94,289.23ZM409.79,560.35,364.6,529.22a10.7,10.7,0,0,1-2.74-14.88L397,463.29a10.69,10.69,0,0,0-2.74-14.87L347,415.81a10.7,10.7,0,0,1-2.74-14.88l94.62-137.35a10.69,10.69,0,0,1,14.87-2.74L498.91,292a10.7,10.7,0,0,1,2.74,14.88l-36.31,52.7a10.69,10.69,0,0,0,2.74,14.87L515.41,407a10.7,10.7,0,0,1,2.74,14.88L424.67,557.61A10.7,10.7,0,0,1,409.79,560.35Z"/></svg>