<svg id="Layer_1" data-name="Layer 1" xmlns="http://www.w3.org/2000/svg" viewBox="0 0 809.84 711.44"><defs><style>.cls-1{font-size:89px;font-family:Outfit-ExtraBold, Outfit;font-weight:700;}.cls-1,.cls-2{fill:#bfdbfe;}</style></defs><title>logo text  #bfdbfe</title><text class="cls-1" transform="translate(59.81 557.34)">StartBusiness</text><path class="cls-2" d="M445.17,266.42l16.59-24.09a4.9,4.9,0,0,0-1.25-6.8L410,200.72a4.88,4.88,0,0,0-6.8,1.25l-88.45,128.4a4.87,4.87,0,0,0,1.25,6.8l49.56,34.14a4.89,4.89,0,0,1,1.25,6.8l-16.07,23.34a4.86,4.86,0,0,0,1.25,6.79l50.54,34.82a4.9,4.9,0,0,0,6.8-1.25l87.94-127.65a4.89,4.89,0,0,0-1.26-6.8l-49.56-34.14A4.9,4.9,0,0,1,445.17,266.42Zm-49,123.92-20.66-14.23a4.88,4.88,0,0,1-1.25-6.8L390.36,346a4.89,4.89,0,0,0-1.25-6.8l-21.64-14.91a4.89,4.89,0,0,1-1.25-6.8l43.25-62.78a4.89,4.89,0,0,1,6.8-1.25l20.66,14.22a4.9,4.9,0,0,1,1.25,6.8l-16.59,24.09a4.87,4.87,0,0,0,1.25,6.8l21.63,14.91a4.89,4.89,0,0,1,1.26,6.8l-42.74,62A4.88,4.88,0,0,1,396.2,390.34Z"/></svg>