<svg id="Layer_1" data-name="Layer 1" xmlns="http://www.w3.org/2000/svg" viewBox="0 0 809.84 711.44"><defs><style>.cls-1{font-size:89px;font-family:Outfit-ExtraBold, Outfit;font-weight:700;}.cls-1,.cls-2{fill:#3b82f6;}</style></defs><title>logo text #3b82f6</title><text class="cls-1" transform="translate(59.97 540.57)">StartBusiness</text><path class="cls-2" d="M444.67,249.16l15.91-23.09a5.49,5.49,0,0,0-1.41-7.64L409.63,184.3a5.5,5.5,0,0,0-7.64,1.4L314.22,313.11a5.5,5.5,0,0,0,1.4,7.64l48.57,33.46a5.49,5.49,0,0,1,1.4,7.63l-15.38,22.35a5.5,5.5,0,0,0,1.4,7.64L401.16,426a5.49,5.49,0,0,0,7.64-1.41l87.25-126.66a5.5,5.5,0,0,0-1.4-7.64L446.08,256.8A5.49,5.49,0,0,1,444.67,249.16ZM394.86,373.24l-19.67-13.55a5.5,5.5,0,0,1-1.4-7.64l15.39-22.34a5.5,5.5,0,0,0-1.41-7.64l-20.64-14.22a5.48,5.48,0,0,1-1.41-7.63l42.57-61.79a5.49,5.49,0,0,1,7.64-1.41l19.66,13.54A5.49,5.49,0,0,1,437,258.2l-15.91,23.09a5.5,5.5,0,0,0,1.4,7.64l20.64,14.22a5.49,5.49,0,0,1,1.41,7.64l-42,61A5.49,5.49,0,0,1,394.86,373.24Z"/></svg>