<svg id="Layer_1" data-name="Layer 1" xmlns="http://www.w3.org/2000/svg" viewBox="0 0 804.08 711.44"><defs><style>.cls-1,.cls-2{fill:#fff;}.cls-2{font-size:59.81px;font-family:SourceSansPro-Black, Source Sans Pro;}</style></defs><title>logo classic logo ICON #eff6ff (Lightest)</title><path class="cls-1" d="M440.22,307.41l21.27-30.87a6.12,6.12,0,0,0-1.57-8.52l-64.59-44.5a6.12,6.12,0,0,0-8.51,1.57L274,388.92a6.12,6.12,0,0,0,1.57,8.52l63.34,43.63a6.13,6.13,0,0,1,1.57,8.51l-20.61,29.93A6.11,6.11,0,0,0,321.4,488L386,532.52A6.11,6.11,0,0,0,394.5,531L506.71,368.08a6.13,6.13,0,0,0-1.57-8.52l-63.35-43.64A6.13,6.13,0,0,1,440.22,307.41ZM378,465.32l-26.51-18.26a6.12,6.12,0,0,1-1.57-8.51l20.61-29.92a6.12,6.12,0,0,0-1.56-8.51L341.17,381a6.13,6.13,0,0,1-1.56-8.52l55.24-80.19a6.11,6.11,0,0,1,8.51-1.57L429.87,309a6.12,6.12,0,0,1,1.57,8.52l-21.27,30.88a6.12,6.12,0,0,0,1.56,8.51L439.49,376a6.14,6.14,0,0,1,1.57,8.52l-54.59,79.23A6.11,6.11,0,0,1,378,465.32Z"/><text class="cls-2" transform="translate(149.82 272.7) rotate(-60.93)"><tspan xml:space="preserve">STARTBUSINESS .CO .IN                                                     </tspan></text><text class="cls-2" transform="translate(253.65 616.42) rotate(27.59)"><tspan xml:space="preserve">EST. 2025                  •                                                              •</tspan></text></svg>