<svg id="Layer_1" data-name="Layer 1" xmlns="http://www.w3.org/2000/svg" viewBox="0 0 804.08 711.44"><defs><style>.cls-1,.cls-2{fill:#1e3a8a;}.cls-2,.cls-3,.cls-4{font-size:59.81px;font-family:SourceSansPro-Black, Source Sans Pro;}.cls-3{fill:#93c5fd;}.cls-4{fill:#2563eb;}</style></defs><title>logo classic #1e3a8a (Darkest)</title><path class="cls-1" d="M452.06,277.84,473.33,247a6.13,6.13,0,0,0-1.57-8.51L407.17,194a6.13,6.13,0,0,0-8.52,1.56L285.79,359.36a6.13,6.13,0,0,0,1.57,8.51L350.7,411.5a6.11,6.11,0,0,1,1.57,8.51l-20.61,29.93a6.13,6.13,0,0,0,1.57,8.51L397.82,503a6.12,6.12,0,0,0,8.52-1.57l112.2-162.87A6.11,6.11,0,0,0,517,330l-63.34-43.64A6.12,6.12,0,0,1,452.06,277.84ZM389.79,435.76,363.28,417.5a6.13,6.13,0,0,1-1.56-8.52l20.61-29.92a6.12,6.12,0,0,0-1.57-8.51L353,351.43a6.11,6.11,0,0,1-1.57-8.51l55.24-80.2a6.13,6.13,0,0,1,8.52-1.57l26.51,18.26a6.12,6.12,0,0,1,1.56,8.51L422,318.8a6.11,6.11,0,0,0,1.57,8.51l27.75,19.13a6.12,6.12,0,0,1,1.57,8.51l-54.58,79.24A6.14,6.14,0,0,1,389.79,435.76Z"/><text class="cls-2" transform="translate(161.65 243.13) rotate(-60.93)"><tspan xml:space="preserve">STARTBUSINESS .CO .IN                                                     </tspan></text><text class="cls-2" transform="translate(265.48 586.85) rotate(27.59)"><tspan xml:space="preserve">EST. 2025                  •                                                              •</tspan></text><text class="cls-3" transform="translate(160.11 1028.01) rotate(-60.93)"><tspan xml:space="preserve">STARTBUSINESS .CO .IN                                                     </tspan></text><text class="cls-4" transform="translate(160.82 -534.48) rotate(-60.93)"><tspan xml:space="preserve">STARTBUSINESS .CO .IN                                                     </tspan></text></svg>