<svg id="Layer_1" data-name="Layer 1" xmlns="http://www.w3.org/2000/svg" xmlns:xlink="http://www.w3.org/1999/xlink" viewBox="0 0 809.84 711.44"><defs><style>.cls-1{fill:url(#linear-gradient);}.cls-2{fill:url(#linear-gradient-2);}.cls-3{fill:url(#linear-gradient-3);}.cls-4{fill:url(#linear-gradient-4);}.cls-5{fill:url(#linear-gradient-5);}.cls-6{fill:url(#linear-gradient-6);}.cls-7{fill:url(#linear-gradient-7);}.cls-8{fill:url(#linear-gradient-8);}.cls-9{fill:url(#linear-gradient-9);}.cls-10{fill:url(#linear-gradient-10);}.cls-11{fill:url(#linear-gradient-11);}.cls-12{fill:url(#linear-gradient-12);}.cls-13{fill:url(#linear-gradient-13);}.cls-14{fill:url(#linear-gradient-14);}</style><linearGradient id="linear-gradient" x1="79.66" y1="508.98" x2="129.24" y2="508.98" gradientUnits="userSpaceOnUse"><stop offset="0" stop-color="#004cff"/><stop offset="0.04" stop-color="#004fff" stop-opacity="0.99"/><stop offset="0.41" stop-color="#0068ff" stop-opacity="0.88"/><stop offset="0.74" stop-color="#07f" stop-opacity="0.82"/><stop offset="1" stop-color="#007cff" stop-opacity="0.8"/></linearGradient><linearGradient id="linear-gradient-2" x1="141.52" y1="509.83" x2="176.23" y2="509.83" xlink:href="#linear-gradient"/><linearGradient id="linear-gradient-3" x1="187.17" y1="518.81" x2="234.43" y2="518.81" xlink:href="#linear-gradient"/><linearGradient id="linear-gradient-4" x1="252.41" y1="518.37" x2="288.19" y2="518.37" xlink:href="#linear-gradient"/><linearGradient id="linear-gradient-5" x1="297.09" y1="509.83" x2="331.8" y2="509.83" xlink:href="#linear-gradient"/><linearGradient id="linear-gradient-6" x1="347.19" y1="509.02" x2="396.85" y2="509.02" xlink:href="#linear-gradient"/><linearGradient id="linear-gradient-7" x1="411.72" y1="519.3" x2="453.9" y2="519.3" xlink:href="#linear-gradient"/><linearGradient id="linear-gradient-8" x1="466.54" y1="518.77" x2="507.03" y2="518.77" xlink:href="#linear-gradient"/><linearGradient id="linear-gradient-9" x1="521.1" y1="508" x2="537.38" y2="508" xlink:href="#linear-gradient"/><linearGradient id="linear-gradient-10" x1="554.92" y1="518.37" x2="598.62" y2="518.37" xlink:href="#linear-gradient"/><linearGradient id="linear-gradient-11" x1="612.77" y1="518.77" x2="659.13" y2="518.77" xlink:href="#linear-gradient"/><linearGradient id="linear-gradient-12" x1="669.73" y1="518.77" x2="710.22" y2="518.77" xlink:href="#linear-gradient"/><linearGradient id="linear-gradient-13" x1="720.54" y1="518.77" x2="761.04" y2="518.77" xlink:href="#linear-gradient"/><linearGradient id="linear-gradient-14" x1="331.96" y1="305.13" x2="515.73" y2="305.13" xlink:href="#linear-gradient"/></defs><title>logo text GRADIENT</title><path class="cls-1" d="M104.05,541.55a36,36,0,0,1-13.75-2.4,30.32,30.32,0,0,1-10.64-7.56l10.06-10.15a24.52,24.52,0,0,0,7,5.29,19,19,0,0,0,8.46,1.83,11.55,11.55,0,0,0,6.18-1.38,4.25,4.25,0,0,0,2.18-3.78,4.77,4.77,0,0,0-1.6-3.69,14.69,14.69,0,0,0-4.23-2.59Q105.12,516,102,515a56.29,56.29,0,0,1-6.32-2.49,27.63,27.63,0,0,1-5.79-3.61,15.81,15.81,0,0,1-4.22-5.34A17.57,17.57,0,0,1,84,495.63a18,18,0,0,1,2.9-10.32,18.61,18.61,0,0,1,8-6.59,29.19,29.19,0,0,1,12-2.31,33.74,33.74,0,0,1,12.63,2.31,25.48,25.48,0,0,1,9.53,6.41L119,495.19a21.82,21.82,0,0,0-5.78-4.28,14.51,14.51,0,0,0-6.41-1.42,9.76,9.76,0,0,0-5.16,1.16,3.65,3.65,0,0,0-1.87,3.29,4.3,4.3,0,0,0,1.6,3.47,15.06,15.06,0,0,0,4.23,2.36q2.61,1,5.78,2.09a65,65,0,0,1,6.28,2.49,25,25,0,0,1,5.74,3.65,16.28,16.28,0,0,1,4.22,5.61,18.94,18.94,0,0,1,1.61,8.18q0,9.45-6.64,14.6T104.05,541.55Z"/><path class="cls-2" d="M141.52,510V497.05h34.71V510Zm9.61,30.61V479.08h15.48v61.49Z"/><path class="cls-3" d="M208,541.46a19.91,19.91,0,0,1-10.77-2.93,20.41,20.41,0,0,1-7.39-8.06,24.71,24.71,0,0,1-2.67-11.61,25.21,25.21,0,0,1,2.67-11.75A19.8,19.8,0,0,1,208,496.16a18.59,18.59,0,0,1,7.48,1.47,14.59,14.59,0,0,1,5.56,4.14,11.81,11.81,0,0,1,2.62,6.05v21.9a11.63,11.63,0,0,1-2.62,6.09,15.23,15.23,0,0,1-5.56,4.14A18.11,18.11,0,0,1,208,541.46Zm3.29-13.79a8.14,8.14,0,0,0,6.19-2.49,9,9,0,0,0,2.36-6.41,9.37,9.37,0,0,0-1.07-4.54,8.17,8.17,0,0,0-3-3.11,8.94,8.94,0,0,0-8.81,0,8.29,8.29,0,0,0-3,3.16,9.09,9.09,0,0,0-1.11,4.49,9.47,9.47,0,0,0,1.07,4.58,7.92,7.92,0,0,0,3,3.16A8.35,8.35,0,0,0,211.29,527.67Zm7.92,12.9V528.92l2.23-10.68-2.23-10.51V497.05h15.22v43.52Z"/><path class="cls-4" d="M252.41,540.57V497.05H267.9v43.52ZM267.9,516.9,261,511q2.58-7.39,6.86-11.13t11.12-3.74a16.36,16.36,0,0,1,5.39.8,9.77,9.77,0,0,1,3.87,2.5l-9,12a5.1,5.1,0,0,0-2-1.29,8.28,8.28,0,0,0-2.9-.49,6.09,6.09,0,0,0-4.71,1.83A7.63,7.63,0,0,0,267.9,516.9Z"/><path class="cls-5" d="M297.09,510V497.05H331.8V510Zm9.61,30.61V479.08h15.48v61.49Z"/><path class="cls-6" d="M347.19,540.57v-63.1h15.67v63.1Zm12.64,0V528.74H373a8.2,8.2,0,0,0,5.92-2.09,7.27,7.27,0,0,0,2.18-5.48,8,8,0,0,0-1-4,6.62,6.62,0,0,0-2.8-2.67,9.42,9.42,0,0,0-4.32-.93H359.83V502.13H372a8.07,8.07,0,0,0,5.12-1.56,6.88,6.88,0,0,0,0-9.7,8.07,8.07,0,0,0-5.12-1.56H359.83V477.47h16A22,22,0,0,1,386,479.7a16.38,16.38,0,0,1,6.63,6,15.76,15.76,0,0,1,2.32,8.46,13.85,13.85,0,0,1-4.32,10.45q-4.32,4.14-12.5,5.12v-5.34q9.07,1.06,13.88,5.83a16.18,16.18,0,0,1,4.8,12,17.11,17.11,0,0,1-2.67,9.48,18.33,18.33,0,0,1-7.52,6.54,25.47,25.47,0,0,1-11.43,2.4Z"/><path class="cls-7" d="M432.81,541.55a23.52,23.52,0,0,1-10.9-2.44,18.43,18.43,0,0,1-10.19-16.87V497.05H427.2v25.19a6.5,6.5,0,0,0,.72,3.12,4.93,4.93,0,0,0,1.95,2,5.77,5.77,0,0,0,2.94.72,5.4,5.4,0,0,0,4.05-1.61,5.84,5.84,0,0,0,1.56-4.27V497.05H453.9v25.19a18.88,18.88,0,0,1-2.67,10.06,18.34,18.34,0,0,1-7.43,6.81A23.72,23.72,0,0,1,432.81,541.55Z"/><path class="cls-8" d="M487.28,541.82a29.59,29.59,0,0,1-7.88-1.07,33.43,33.43,0,0,1-7.21-2.89,23.44,23.44,0,0,1-5.65-4.23L475,525a15,15,0,0,0,5.11,3.47,16.37,16.37,0,0,0,6.37,1.25,6.58,6.58,0,0,0,3-.54,1.65,1.65,0,0,0,1-1.51,2.36,2.36,0,0,0-1.47-2.18,18.15,18.15,0,0,0-3.82-1.34c-1.58-.38-3.22-.86-4.94-1.42a24.58,24.58,0,0,1-5-2.27,10.71,10.71,0,0,1-3.87-4,13.2,13.2,0,0,1-1.47-6.59,12.25,12.25,0,0,1,2.27-7.34,15.27,15.27,0,0,1,6.37-5,23.51,23.51,0,0,1,9.61-1.82,30.11,30.11,0,0,1,10.68,1.91,18.9,18.9,0,0,1,8.18,5.74L498.49,512a11.46,11.46,0,0,0-4.72-3.34,13.8,13.8,0,0,0-4.71-.94,5.65,5.65,0,0,0-2.94.58,1.8,1.8,0,0,0-.89,1.56c0,.77.49,1.39,1.47,1.87a20.21,20.21,0,0,0,3.83,1.29q2.36.59,4.89,1.47a22.23,22.23,0,0,1,4.9,2.45,11.87,11.87,0,0,1,3.82,4.13,13.41,13.41,0,0,1,1.47,6.68,12.22,12.22,0,0,1-5,10.28Q495.64,541.82,487.28,541.82Z"/><path class="cls-9" d="M529.2,492a7.74,7.74,0,0,1-5.79-2.36,8.68,8.68,0,0,1,0-11.79,8.33,8.33,0,0,1,11.7,0,8.79,8.79,0,0,1,0,11.79A7.8,7.8,0,0,1,529.2,492Zm-7.75,48.59V497.05H537v43.52Z"/><path class="cls-10" d="M554.92,540.57V497.05H570.4v43.52Zm28.21,0V516a6.33,6.33,0,0,0-1.78-4.76,6.23,6.23,0,0,0-4.54-1.74,6.9,6.9,0,0,0-3.34.8,5.73,5.73,0,0,0-2.27,2.23,7,7,0,0,0-.8,3.47l-6-2.85a16.9,16.9,0,0,1,2.32-9,15.74,15.74,0,0,1,6.36-5.87,19.71,19.71,0,0,1,9.21-2.1,16,16,0,0,1,16.38,16.29v28.12Z"/><path class="cls-11" d="M637.69,541.55a27.75,27.75,0,0,1-12.91-2.89,22.81,22.81,0,0,1-8.9-31.59,22.51,22.51,0,0,1,8.5-8.1,24.63,24.63,0,0,1,12.15-3,23.93,23.93,0,0,1,11.7,2.8,20.56,20.56,0,0,1,8,7.74,21.87,21.87,0,0,1,2.89,11.26c0,.89,0,1.8-.13,2.72a21.38,21.38,0,0,1-.58,3.15l-38.36.18v-10l32.22-.27L645.34,518a17,17,0,0,0-1.07-6,7.72,7.72,0,0,0-2.85-3.6,8.32,8.32,0,0,0-4.71-1.25,9,9,0,0,0-5.08,1.43,9.14,9.14,0,0,0-3.29,4,15.19,15.19,0,0,0-1.16,6.23,14.75,14.75,0,0,0,1.25,6.36,8.77,8.77,0,0,0,3.56,4,11.23,11.23,0,0,0,5.7,1.34,14.09,14.09,0,0,0,5.65-1.07,12.5,12.5,0,0,0,4.4-3.29l8.1,8.1a20.53,20.53,0,0,1-7.79,5.52A27.33,27.33,0,0,1,637.69,541.55Z"/><path class="cls-12" d="M690.46,541.82a29.52,29.52,0,0,1-7.87-1.07,33.22,33.22,0,0,1-7.21-2.89,23.24,23.24,0,0,1-5.65-4.23l8.45-8.63a15,15,0,0,0,5.12,3.47,16.32,16.32,0,0,0,6.36,1.25,6.52,6.52,0,0,0,3-.54,1.66,1.66,0,0,0,1-1.51,2.36,2.36,0,0,0-1.47-2.18,18.26,18.26,0,0,0-3.83-1.34c-1.57-.38-3.22-.86-4.94-1.42a24.75,24.75,0,0,1-5-2.27,10.63,10.63,0,0,1-3.87-4,13.2,13.2,0,0,1-1.47-6.59,12.19,12.19,0,0,1,2.27-7.34,15.24,15.24,0,0,1,6.36-5,23.54,23.54,0,0,1,9.61-1.82A30.11,30.11,0,0,1,702,497.63a19,19,0,0,1,8.19,5.74L701.68,512a11.58,11.58,0,0,0-4.72-3.34,13.81,13.81,0,0,0-4.72-.94,5.7,5.7,0,0,0-2.94.58,1.79,1.79,0,0,0-.88,1.56c0,.77.48,1.39,1.46,1.87a20.46,20.46,0,0,0,3.83,1.29c1.57.39,3.21.88,4.89,1.47a21.8,21.8,0,0,1,4.9,2.45,11.89,11.89,0,0,1,3.83,4.13,13.41,13.41,0,0,1,1.47,6.68,12.23,12.23,0,0,1-5,10.28Q698.83,541.82,690.46,541.82Z"/><path class="cls-13" d="M741.28,541.82a29.64,29.64,0,0,1-7.88-1.07,33.43,33.43,0,0,1-7.21-2.89,23.64,23.64,0,0,1-5.65-4.23L729,525a15,15,0,0,0,5.12,3.47,16.29,16.29,0,0,0,6.36,1.25,6.55,6.55,0,0,0,3-.54,1.65,1.65,0,0,0,1-1.51,2.35,2.35,0,0,0-1.46-2.18,18.26,18.26,0,0,0-3.83-1.34c-1.57-.38-3.22-.86-4.94-1.42a24.75,24.75,0,0,1-5-2.27,10.66,10.66,0,0,1-3.88-4,13.31,13.31,0,0,1-1.46-6.59,12.25,12.25,0,0,1,2.26-7.34,15.34,15.34,0,0,1,6.37-5,23.54,23.54,0,0,1,9.61-1.82,30.11,30.11,0,0,1,10.68,1.91,19,19,0,0,1,8.19,5.74L752.49,512a11.49,11.49,0,0,0-4.71-3.34,13.85,13.85,0,0,0-4.72-.94,5.67,5.67,0,0,0-2.94.58,1.8,1.8,0,0,0-.89,1.56c0,.77.49,1.39,1.47,1.87a20.46,20.46,0,0,0,3.83,1.29q2.36.59,4.89,1.47a22,22,0,0,1,4.9,2.45,11.89,11.89,0,0,1,3.83,4.13,13.52,13.52,0,0,1,1.46,6.68,12.22,12.22,0,0,1-5,10.28Q749.65,541.82,741.28,541.82Z"/><path class="cls-14" d="M463.38,249.16l15.91-23.09a5.49,5.49,0,0,0-1.41-7.64L428.34,184.3a5.5,5.5,0,0,0-7.64,1.4L332.93,313.11a5.5,5.5,0,0,0,1.4,7.64l48.57,33.46a5.49,5.49,0,0,1,1.4,7.63l-15.38,22.35a5.5,5.5,0,0,0,1.4,7.64L419.87,426a5.49,5.49,0,0,0,7.64-1.41l87.25-126.66a5.5,5.5,0,0,0-1.4-7.64L464.79,256.8A5.49,5.49,0,0,1,463.38,249.16ZM413.57,373.24,393.9,359.69a5.5,5.5,0,0,1-1.4-7.64l15.39-22.34a5.5,5.5,0,0,0-1.41-7.64l-20.64-14.22a5.48,5.48,0,0,1-1.41-7.63L427,238.43a5.49,5.49,0,0,1,7.64-1.41l19.66,13.54a5.49,5.49,0,0,1,1.41,7.64L439.8,281.29a5.5,5.5,0,0,0,1.4,7.64l20.64,14.22a5.49,5.49,0,0,1,1.41,7.64l-42,61A5.49,5.49,0,0,1,413.57,373.24Z"/></svg>