<svg id="Layer_1" data-name="Layer 1" xmlns="http://www.w3.org/2000/svg" xmlns:xlink="http://www.w3.org/1999/xlink" viewBox="0 0 4336.44 2329.29"><defs><style>.cls-1{fill:url(#linear-gradient);}.cls-2{fill:url(#linear-gradient-2);}.cls-3{fill:#93c5fd;}.cls-4{fill:#bcf3fa;}.cls-5{fill:url(#linear-gradient-3);}.cls-6{fill:url(#linear-gradient-4);}.cls-7{fill:url(#linear-gradient-5);}.cls-8{fill:url(#linear-gradient-6);}.cls-9{fill:url(#linear-gradient-7);}.cls-10{fill:url(#linear-gradient-8);}.cls-11{fill:url(#linear-gradient-9);}.cls-12{fill:url(#linear-gradient-10);}.cls-13{fill:url(#linear-gradient-11);}.cls-14{fill:url(#linear-gradient-12);}.cls-15{fill:url(#linear-gradient-13);}.cls-16{fill:url(#linear-gradient-14);}.cls-17{fill:url(#linear-gradient-15);}.cls-18{fill:url(#linear-gradient-16);}.cls-19{fill:url(#linear-gradient-17);}.cls-20{fill:url(#linear-gradient-18);}.cls-21{fill:url(#linear-gradient-19);}.cls-22{fill:url(#linear-gradient-20);}.cls-23{fill:url(#linear-gradient-21);}.cls-24{fill:url(#linear-gradient-22);}.cls-25{fill:url(#linear-gradient-23);}.cls-26{fill:#b6e5f8;}.cls-27{fill:#8db0f7;}.cls-28{fill:url(#linear-gradient-24);}.cls-29{fill:#1e3a8a;}.cls-30{fill:url(#linear-gradient-25);}.cls-31{fill:url(#linear-gradient-26);}.cls-32{fill:url(#linear-gradient-27);}.cls-33{fill:url(#linear-gradient-28);}.cls-34{fill:url(#linear-gradient-29);}.cls-35{fill:url(#linear-gradient-30);}.cls-36{fill:url(#linear-gradient-31);}.cls-37{fill:#fff;}.cls-38{fill:url(#linear-gradient-32);}.cls-39{fill:url(#linear-gradient-33);}.cls-40{fill:url(#linear-gradient-34);}.cls-41{fill:url(#linear-gradient-35);}.cls-42{fill:url(#linear-gradient-37);}.cls-43{fill:url(#linear-gradient-38);}.cls-44{fill:url(#linear-gradient-39);}.cls-45{fill:url(#linear-gradient-40);}</style><linearGradient id="linear-gradient" x1="2665.54" y1="-2352" x2="2415.98" y2="-2343.48" gradientTransform="matrix(2, 0, 0, -2, -2540.5, -2849.12)" gradientUnits="userSpaceOnUse"><stop offset="0" stop-color="#004cff"/><stop offset="0.04" stop-color="#004fff" stop-opacity="0.99"/><stop offset="0.41" stop-color="#0068ff" stop-opacity="0.88"/><stop offset="0.74" stop-color="#07f" stop-opacity="0.82"/><stop offset="1" stop-color="#007cff" stop-opacity="0.8"/></linearGradient><linearGradient id="linear-gradient-2" x1="2377.74" y1="875" x2="2622.51" y2="875" gradientTransform="matrix(1, 0, 0, 1, 0, 0)" xlink:href="#linear-gradient"/><linearGradient id="linear-gradient-3" x1="2219.7" y1="1086.87" x2="2219.74" y2="1086.87" gradientTransform="matrix(1, 0, 0, 1, 0, 0)" xlink:href="#linear-gradient"/><linearGradient id="linear-gradient-4" x1="2219.62" y1="1054.9" x2="2219.74" y2="1054.9" gradientTransform="matrix(1, 0, 0, 1, 0, 0)" xlink:href="#linear-gradient"/><linearGradient id="linear-gradient-5" x1="2219.71" y1="1118.01" x2="2219.75" y2="1118.01" gradientTransform="matrix(1, 0, 0, 1, 0, 0)" xlink:href="#linear-gradient"/><linearGradient id="linear-gradient-6" x1="2219.74" y1="1103.67" x2="2219.83" y2="1103.67" gradientTransform="matrix(1, 0, 0, 1, 0, 0)" xlink:href="#linear-gradient"/><linearGradient id="linear-gradient-7" x1="2660.96" y1="951.16" x2="2332.51" y2="1391.08" gradientTransform="matrix(1, 0, 0, 1, 0, 0)" xlink:href="#linear-gradient"/><linearGradient id="linear-gradient-8" x1="2222.03" y1="1086.01" x2="2217.44" y2="1087.72" gradientTransform="matrix(1, 0, 0, 1, 0, 0)" xlink:href="#linear-gradient"/><linearGradient id="linear-gradient-9" x1="2221.24" y1="1117.45" x2="2218.24" y2="1118.56" gradientTransform="matrix(1, 0, 0, 1, 0, 0)" xlink:href="#linear-gradient"/><linearGradient id="linear-gradient-10" x1="3514.72" y1="1016.25" x2="2982.88" y2="1049.92" gradientTransform="matrix(1, 0, 0, 1, 0, 0)" xlink:href="#linear-gradient"/><linearGradient id="linear-gradient-11" x1="2903.24" y1="-2038.39" x2="2886.99" y2="-2001.7" gradientTransform="matrix(2, 0, 0, -2, -2540.5, -2849.12)" gradientUnits="userSpaceOnUse"><stop offset="0" stop-color="#6ce2f9"/><stop offset="1" stop-color="#c6f4f4"/></linearGradient><linearGradient id="linear-gradient-12" x1="2989.16" y1="-2439.79" x2="2785.65" y2="-2400.17" xlink:href="#linear-gradient"/><linearGradient id="linear-gradient-13" x1="3338.19" y1="1715.39" x2="3117.82" y2="1672.48" gradientTransform="matrix(1, 0, 0, 1, 0, 0)" xlink:href="#linear-gradient"/><linearGradient id="linear-gradient-14" x1="3012.64" y1="350.66" x2="3488.47" y2="350.66" gradientTransform="matrix(1, 0, 0, 1, 0, 0)" xlink:href="#linear-gradient"/><linearGradient id="linear-gradient-15" x1="3012.59" y1="515.05" x2="3162.58" y2="515.05" gradientTransform="matrix(1, 0, 0, 1, 0, 0)" xlink:href="#linear-gradient"/><linearGradient id="linear-gradient-16" x1="2396.86" y1="332.57" x2="2814.7" y2="332.57" gradientTransform="matrix(1, 0, 0, 1, 0, 0)" xlink:href="#linear-gradient"/><linearGradient id="linear-gradient-17" x1="3613.23" y1="332.57" x2="4174.8" y2="332.57" gradientTransform="matrix(1, 0, 0, 1, 0, 0)" xlink:href="#linear-gradient"/><linearGradient id="linear-gradient-18" x1="4056.52" y1="1653.68" x2="3780.68" y2="1996.39" gradientTransform="matrix(1, 0, 0, 1, 0, 0)" xlink:href="#linear-gradient"/><linearGradient id="linear-gradient-19" x1="4006.53" y1="1981.46" x2="4174.8" y2="1981.46" gradientTransform="matrix(1, 0, 0, 1, 0, 0)" xlink:href="#linear-gradient"/><linearGradient id="linear-gradient-20" x1="4086.2" y1="1858.97" x2="4086.55" y2="1858.97" gradientTransform="matrix(1, 0, 0, 1, 0, 0)" xlink:href="#linear-gradient"/><linearGradient id="linear-gradient-21" x1="3653.16" y1="1980.41" x2="3821.3" y2="1980.41" gradientTransform="matrix(1, 0, 0, 1, 0, 0)" xlink:href="#linear-gradient"/><linearGradient id="linear-gradient-22" x1="3706.27" y1="2053.34" x2="3821.02" y2="2053.34" gradientTransform="matrix(1, 0, 0, 1, 0, 0)" xlink:href="#linear-gradient"/><linearGradient id="linear-gradient-23" x1="1985.41" y1="-2012.21" x2="1781.93" y2="-1880.4" xlink:href="#linear-gradient"/><linearGradient id="linear-gradient-24" x1="1954.98" y1="1191.53" x2="1711.41" y2="961.94" gradientTransform="matrix(1, 0, 0, 1, 0, 0)" xlink:href="#linear-gradient"/><linearGradient id="linear-gradient-25" x1="1657.73" y1="440.2" x2="2031.37" y2="440.2" gradientTransform="matrix(1, 0, 0, 1, 0, 0)" xlink:href="#linear-gradient"/><linearGradient id="linear-gradient-26" x1="2295.17" y1="-1636.41" x2="2336.51" y2="-1636.92" xlink:href="#linear-gradient"/><linearGradient id="linear-gradient-27" x1="279.17" y1="1075.93" x2="685.07" y2="1075.93" gradientTransform="matrix(1, 0, 0, 1, 0, 0)" xlink:href="#linear-gradient"/><linearGradient id="linear-gradient-28" x1="1032.1" y1="332.57" x2="1454.61" y2="332.57" gradientTransform="matrix(1, 0, 0, 1, 0, 0)" xlink:href="#linear-gradient"/><linearGradient id="linear-gradient-29" x1="2052.8" y1="1995.76" x2="1660.9" y2="1702.21" gradientTransform="matrix(1, 0, 0, 1, 0, 0)" xlink:href="#linear-gradient"/><linearGradient id="linear-gradient-30" x1="386.34" y1="1602.7" x2="386.09" y2="1602.93" gradientUnits="userSpaceOnUse"><stop offset="0" stop-color="#76a0fc"/><stop offset="1" stop-color="#a2e2fa"/></linearGradient><linearGradient id="linear-gradient-31" x1="678.95" y1="1669.09" x2="294.81" y2="2027.88" gradientTransform="matrix(1, 0, 0, 1, 0, 0)" xlink:href="#linear-gradient"/><linearGradient id="linear-gradient-32" x1="1290.22" y1="1972.34" x2="1290.33" y2="1972.34" gradientTransform="matrix(1, 0, 0, 1, 0, 0)" xlink:href="#linear-gradient"/><linearGradient id="linear-gradient-33" x1="1347.95" y1="2098" x2="1364.86" y2="2098" gradientTransform="matrix(1, 0, 0, 1, 0, 0)" xlink:href="#linear-gradient"/><linearGradient id="linear-gradient-34" x1="1364.86" y1="2084.68" x2="1366.54" y2="2084.68" gradientTransform="matrix(1, 0, 0, 1, 0, 0)" xlink:href="#linear-gradient"/><linearGradient id="linear-gradient-35" x1="977.11" y1="1849.52" x2="1366.92" y2="1849.52" gradientTransform="matrix(1, 0, 0, 1, 0, 0)" xlink:href="#linear-gradient"/><linearGradient id="linear-gradient-37" x1="1410.74" y1="-1873.32" x2="1416.93" y2="-1873.58" gradientTransform="matrix(1.61, 0, 0, -1.61, -1538.25, -2652.02)" xlink:href="#linear-gradient"/><linearGradient id="linear-gradient-38" x1="240.4" y1="440.52" x2="744.48" y2="385.78" gradientTransform="matrix(1, 0, 0, 1, 0, 0)" xlink:href="#linear-gradient"/><linearGradient id="linear-gradient-39" x1="367.84" y1="575.43" x2="624.58" y2="575.43" gradientTransform="matrix(1, 0, 0, 1, 0, 0)" xlink:href="#linear-gradient"/><linearGradient id="linear-gradient-40" x1="4185.58" y1="1058.96" x2="3718.05" y2="1084.09" gradientTransform="matrix(1, 0, 0, 1, 0, 0)" xlink:href="#linear-gradient"/></defs><title>website icons</title><path class="cls-1" d="M2647.56,2000.52c-29.35,2-32.74,12.29-48.82,33.73l-30.61,40.8c-10.4,13.89-27.92,18.88-42.82,8.52-6.57-4.57-10.73-11.82-15.45-18.09l-27.59-35.88c-21.32-27.64-24.84-30-60.22-30l-45.7,0c-10.29,0-25.09.6-34.92-1.49-23-4.88-41.26-26-44.11-49.1-.77-6.22-.39-12.71-.38-19V1676.64c0-5.16-.4-10.66.26-15.78,3.49-27.21,25.85-48,52.85-50.91H2723c31.16,0,58.31,14,64.3,47.69,1.91,10.72,1,22.34,1,33.22v246.26c0,28.58-13.69,54.08-43.26,61.68-11.15,2.87-29.46,1.73-41.43,1.73ZM2450.79,1830.1c-20.75-.43-36.16,12.08-27.83,33.65,9.3,18.62,33.18,13.07,51.1,13.1l58.82.39c33.42,0,38.23-40.24,6.41-46.64-8.09-1.63-23.55-.51-32.57-.5H2469.8C2463.47,1830.09,2457.12,1829.92,2450.79,1830.1Zm50.64-90.25-32.74,0c-8.75,0-21.89-1-30,1.4-23.68,7.06-23.71,44.27,1.9,48.42,5.39.88,11.26.45,16.72.44l127.26,0H2622c7.4,0,16.52.82,23.66-.87,25.62-6,24.38-44-1.43-48.72-5.83-1.07-12.12-.64-18-.64ZM2619,1830.1c-10.13.58-20.23,1.71-27.44,9.76-8.12,9.06-6.56,22.49,2.32,30.32,10.38,9.15,24.73,8.37,37.71,7.82,9.6-.21,18.46.08,25.64-7.33,8.88-9.18,9.65-23.47.06-32.51C2647.34,1828.78,2631.64,1830.06,2619,1830.1Z"/><path class="cls-2" d="M2377.76,931l0-27.21c0-32.16,6.41-56.58,37.21-74.47,17.12-9.94,33.52-10,52.64-10h49.24c16.31,0,35.25-1.5,50.94,2.88,41.79,11.67,54.74,46.06,54.74,84.74l0,24.07h-28.76c-5.42,0-10.84-.3-16.25,0l0-24.2c0-7,.8-15.16-1-22-5-18.61-19.71-21-35.52-21h-19.23c-21.71,0-43.45-.23-65.15,0-31.16.38-35.46,13.55-35.44,41.68l0,25.49C2409.35,929.82,2389.93,930.78,2377.76,931Z"/><path class="cls-3" d="M2219.75,1122.6c0-.49,0-1,0-1.47v1.47Z"/><path class="cls-3" d="M2219.74,1037v17.49C2219.71,1048.65,2219.49,1042.79,2219.74,1037Z"/><path class="cls-3" d="M2778.19,1038.68c-2.7,1.36-2.87,4.06-4,6.71-15.22,36.06-42.43,41.51-76.44,41.51l-133.13,0c-1.52,0-8.1-.53-9,.27l-.2.95c-3.31-22.09-20.81-23.65-38.2-23.67l-21.28,0c-19.2,0-45.71-4.82-52.76,19.42-.35,1.2-.5,3.26-1.14,4.27l-.16-.55c-2.34-2-49.84-.65-56.17-.65l-97.5.11c-20.77.12-36.83-6.24-51.66-20.89-11-12.51-10.25-17.25-16.79-29.46,0,.1,0,.22,0,.32V999.41c0-26.74,3-53.52,32.58-64.79A127.48,127.48,0,0,1,2265.1,931c5.48,1.66,9.79.67,15.37.71s64.14.41,66.1-.71c10.39,0,20.79.21,31.18,0,12.19-.2,31.6-1.15,43.42,0,4.8.67,11.32,0,16.35,0l106.22,0c11.15,0,22.61.58,33.74,0,5.41-.31,10.83,0,16.24,0h28.77l97,0c23.64-.2,45.92,6.35,55,31.53C2778.79,974.33,2779.77,1023.42,2778.19,1038.68Z"/><path class="cls-4" d="M2265.1,931c8.8-.4,17.86,0,26.7,0h54.77c-2,1.13-60.65.75-66.1.71S2270.58,932.63,2265.1,931Z"/><path class="cls-5" d="M2219.74,1079.83v14.07c0-.21,0-.42,0-.63,0-4.36-.06-8.88,0-13.16V1080A.76.76,0,0,1,2219.74,1079.83Z"/><path class="cls-6" d="M2219.73,1054.47c0-5.82-.24-11.68,0-17.49v17.49Z"/><path class="cls-7" d="M2219.75,1122.6c0-.49,0-1,0-1.47q0-3.32,0-6.56v-.39c0-.25,0-.51,0-.77Z"/><path class="cls-8" d="M2219.79,1110.86c0,.84,0,1.69-.05,2.55v-19.47C2219.8,1100.52,2219.89,1106.66,2219.79,1110.86Z"/><path class="cls-9" d="M2777,1293.26c-4.39,24.22-27.3,39.73-51.13,39.57l-436.82-.21c-50.81,0-69.36-15.95-69.31-67.43,0-6.93-.77-14.34,0-21.22-.41-3.16-.05-6.79,0-10l0-112.83c0,.49,0,1,0,1.47v-9.19c0-.86,0-1.71.05-2.55.1-4.2,0-10.34-.05-16.92v-57c0-.1,0-.22,0-.32,6.54,12.21,5.83,16.95,16.79,29.46,14.83,14.65,30.89,21,51.66,20.89l97.5-.11c6.33,0,53.83-1.3,56.17.65l.16.55c-.29,4.09,0,8.33,0,12.44l0,22.27c.34,34,24.64,31.18,50.4,31.17,15.88,0,44.57,4,56-8.24,10-10.63,7.38-42.2,7-57.64l.2-.95c.93-.8,7.51-.27,9-.27l133.13,0c34,0,61.22-5.45,76.44-41.51,1.11-2.65,1.28-5.35,4-6.71v222C2778.2,1271.32,2778.92,1282.73,2777,1293.26Z"/><path class="cls-10" d="M2219.74,1079.83v14.07c0-.21,0-.42,0-.63,0-4.36-.06-8.88,0-13.16V1080A.76.76,0,0,1,2219.74,1079.83Z"/><path class="cls-11" d="M2219.75,1122.6c0-.49,0-1,0-1.47q0-3.32,0-6.56v-.39c0-.25,0-.51,0-.77Z"/><path class="cls-12" d="M3510,947.81v242.13c-14.85.41-29.84,0-44.71,0H3085.79c-20.65-.5-41.42,0-62.09,0l-20.34,0c-4,0-8.27-.39-12.26,0l0-247.51c0-9.34-.92-20,.63-29.14,5.33-31.5,32.39-40.93,60.05-40.88l406,0c25.24.07,46.95,16.61,51.15,41.89C3510.78,925.17,3510,936.83,3510,947.81Z"/><path class="cls-13" d="M3351.86,1189.94h0Zm-205.3,0h0Zm183.42,0c7.27,0,14.63.33,21.88,0Z"/><path class="cls-3" d="M3529.2,1256c-5,23.41-27,43.06-51,44.84-10.83.8-22,.26-32.86.26H3042.19c-8.65,0-18,.73-26.47-1.25-19.55-4.56-40.94-22.14-44.57-43-3-7.26-2.28-44.56.53-52.42,4.47-12.49,11.48-10.42,19.42-14.58,4-.43,8.24-.07,12.26,0l20.34,0c20.67,0,41.44-.51,62.09,0h60.77c-.12,35.54,2.6,45,40.36,45l134.32,0c8.54-.06,16.4-2.46,22.38-8.81,11.09-12.17,8.07-21.08,8.36-36.17h113.29c14.87,0,29.86.41,44.71,0,9.14,1.88,18,7.25,19.71,17.1C3530.89,1214,3530.7,1249.09,3529.2,1256Z"/><path class="cls-14" d="M3256,1905.08c3.21-4.47,7-8.68,10.53-12.93l18.65-22.47c7.55-8.94,13.06-20.69,26.31-20.44,29,.53,64.44,16.36,84.81,37.71,27.36,28.69,30,58.81,30,95.35v82.94c0,17.1,4,45.69-20.2,48.33a193.78,193.78,0,0,1-21,.64h-301c-15.07,0-36.55,3.19-47.54-8.63-8.47-9.12-7-22-7-33.5v-79.19c0-32.86-.55-58.4,18-88.1,21.1-33.84,59.06-53.34,99-51.5,9.83.46,13.16,5,19.39,11.85,11.89,13.15,23.13,26.84,35.07,39.95-.61,9.82-.87,40.05.76,47.69,6.36,30,52.25,29.15,53.4-7.32C3255.37,1938.79,3254.41,1908.7,3256,1905.08Z"/><rect class="cls-15" x="3118.51" y="1584.44" width="218.99" height="218.99" rx="93.51" ry="93.51"/><path class="cls-16" d="M3488.29,156.66c-.29-7.15-1.77-26.58-3.91-32.82-4.46-13-21.55-10.08-32.36-10.07-96.84,0-169.14,23.47-236.85,97.51-16.14,17.65-34.64,34.55-50.09,52.15-4.78,4.46-9.56,9.1-14,13.89-19.34-11.69-39.24-15.94-61.82-10.4-26.48,6.5-42.24,24.12-60.06,43-3.93,4.18-11.24,10.86-14,15.56-9.09,15.4,8.31,21.73,18.45,25.85l48.14,19.77c5.2,2.21,10.59,4.93,16,6.49-.15,15.32.28,25.4,11.62,36.94l55.47,55.81c3.11,3.14,6.18,6.5,9.51,9.4,10.05,10.48,18.35,18.32,33.62,19.46,3.45.25,11.66-.38,14.27,1.65,3,2.31,9.1,22.43,10.67,26.68L3245.6,561c4.36,11.7,9.75,32.65,28.14,25.35,5.36-2.13,9.82-7.08,14.06-10.88,41.68-37.44,60.59-73,38.77-129,6.52-6.81,13.92-12.82,20.77-19.27l30-28.56c10.44-9.94,20.93-19.84,30.71-30.44C3456.77,315.39,3491.24,229.33,3488.29,156.66ZM3353.15,303.78A51.58,51.58,0,1,1,3400.31,248,51.58,51.58,0,0,1,3353.15,303.78Z"/><path class="cls-17" d="M3162.31,528c-1.92,10.35-19,25.39-27.46,31.27-19,12.71-87.27,32.39-110.17,28.86s-6.79-42.38-3.69-55.87c6.7-29.2,12.17-83.08,48.91-90.47,12-1.42,23.67,6.35,23.41,19.36-.37,18.82-43.65,28.61-23.41,70.24,3.29,2.25,7.8,3.16,11.68,3.76,41.94,6.46,38.67-33.61,64.8-29C3156.18,507.79,3164.16,517.94,3162.31,528Z"/><path class="cls-18" d="M2814.56,294.41V204.52c0-13.94,1.75-27.44-12-36-7.58-4.71-17.45-3.82-26-4.88-56.12-6.9-106.51-36.37-147-74.91-9.13-8.7-15.31-15.68-29-12.31-9.41,2.32-31.31,25.86-40.52,33.15-35.26,27.86-76.73,48.28-121.77,53-15.09,1.58-28.19.91-36.91,15.58-6.17,10.36-4.18,25.2-4.18,36.73v89.2c0,12.53-.18,25.19.82,37.68,5.33,66.12,43.07,138.05,95.42,178,13.69,10.45,29.6,18.25,43.93,27.87l41.24,28.07c10.1,6.79,20.4,16.64,33.67,13.09,12.32-3.31,41.19-26.79,56-35.52,17.66-14.75,41.2-25.59,60-40.82,19.61-15.92,41.68-43.52,53.15-66.7,19.13-29.95,31.37-80.44,33-114.9C2815,318.79,2814.56,306.53,2814.56,294.41ZM2559.09,404.8,2544.23,390c-6.4-6.31-20.7-18.35-25.25-25.36-11.19-17.22-.06-40.43,20.2-42.39,19.91-1.94,29.69,18.11,43.16,28.86,7.18,5.73,15.2-7.07,19.44-11.34l35.09-34.66c9.31-9.3,17.41-21.66,31.4-23.32,23.21-2.71,37.94,23.07,25,42.42-3,4.42-7,8-10.71,11.71l-45.2,45.19c-9.67,9.52-19.65,18.72-29.14,28.43C2590.12,428,2575,420.62,2559.09,404.8Z"/><path class="cls-19" d="M4158.53,293.85c-47.71-70.91-136.85-136.49-224.35-145.86-9.82-2-20.3-2.31-30.29-2.69-108.68-4.21-203.9,56.84-268.14,140.38-19.1,24.85-32.59,47.35-12.74,77,7.33,11,25.79,35.83,36,44.87,7,9.88,17.28,18.43,26.15,26.6,86.16,79.3,202.55,109.19,314,66.18,61.31-23.67,119.46-72,157.46-124.8C4179.68,343.49,4181.33,327.74,4158.53,293.85Zm-310.2,136.87c-45.07-21.14-64.57-66.92-58.81-114.52.71-1.42,4.67-16.34,5.22-18.89.17-6.18,8.68-21.31,12-26.06,7.73-11,25-26.15,37.44-31.19,4.09.7,8.29.95,12.4,1.59l.12-.24c-3-1.35-7.14-.84-10.41-1.61,1-2.34,6.14-2.08,7.92-4,54-20.36,116.77,3.28,137.72,58.55C4026.76,386.17,3935.82,471.75,3848.33,430.72Z"/><path class="cls-3" d="M3886,311.4c-19.81,37.62-77.49,35.08-89.92-9.11-.45-1.61-.48-3.54-1.31-5,.17-6.18,8.68-21.31,12-26.06,7.73-11,25-26.15,37.44-31.19,4.09.7,8.29.95,12.4,1.59,2.35,1.34,6.37,2,9.21,3.32C3891.13,256.88,3898.63,287.36,3886,311.4Z"/><path class="cls-20" d="M4152.18,1859.64v43.83c-3.73-3-6.89-7.48-10.36-10.9-14.7-14.46-34.5-25.27-55.58-25.13a115.27,115.27,0,0,0,0-16.93c0-10.76.37-21.64-.81-32.34-9.3-84.74-85.46-151.82-170.49-151.78-86.61,0-163.12,67.09-172.8,153.21-1.76,15.65-1.3,31.49-1.29,47.2,3.45-.42,7.67-.84,11.09,0-2.8.68-5.56.11-8.38.06-25.27-.41-47.12,12.36-63.41,31.21-1.28,1.49-8.45,11.12-8.61,11.22,3.58-6.52,3-12.56,3-19.85l0-19.21c0-16.19-.49-32.5,1.14-48.63,12.46-122.63,113.58-217.65,237.85-218,125.81-.4,227.94,98.21,238,222.29C4152.39,1837.1,4152.18,1848.36,4152.18,1859.64Z"/><path class="cls-21" d="M4174.58,1991.17c-1.61,31.45-12.33,63.18-36.93,84.16-34,29-82.7,27-111.9-7.83-3-3.6-6.66-8-8.65-12.24-7.81-6.45-10.46-40.41-10.47-49.88l0-42.33c0-21.71-1.6-38.42,10.09-58.13,15.91-26.8,39.75-37.48,69.53-37.48,21.08-.14,40.88,10.67,55.58,25.13,3.47,3.42,6.63,7.85,10.36,10.9a102.18,102.18,0,0,0,5.68,9.55c9,14.77,14,31.43,16.95,48.38C4174,1971.25,4175.09,1981.25,4174.58,1991.17Z"/><path class="cls-22" d="M4086.23,1867.44c0-5.64-.06-11.29,0-16.93A115.27,115.27,0,0,1,4086.23,1867.44Z"/><path class="cls-23" d="M3751.93,1866.8c31.94,1.52,62.31,32.26,67.79,63.14,1.48,8.35,1.32,16.77,1.31,25.21l0,46.34c0,3.26.58,6.78,0,10-1.52,3.51-.72,7.32-1,11-1.31,17.18-8.11,34.21-20.18,46.68-2.61,2.7-6.05,5.08-8.37,8-1.87-.63-32.6,11.26-35.75,12.42-16.15,5.92-24.95,6.27-41.93-.94-1.61-.68-5.92-3.53-7.52-2.76-4-1.09-10.95-6.34-14.26-9-30.52-24.89-38.82-58.55-38.85-95.77,0-19.68,5.23-55.77,18.37-71.75.16-.1,7.33-9.73,8.61-11.22,16.29-18.85,38.14-31.62,63.41-31.21C3746.37,1866.91,3749.13,1867.47,3751.93,1866.8Z"/><path class="cls-24" d="M3706.27,2085.85c1.6-.77,5.91,2.08,7.52,2.76,17,7.21,25.78,6.86,41.93.94,3.15-1.16,33.88-13.05,35.75-12.42,2.32-2.87,5.76-5.25,8.37-8,12.07-12.47,18.87-29.5,20.18-46.68.28-3.7-.52-7.51,1-11-.94,26.1-5.47,44.43-25.29,62.92C3771.61,2096.89,3735.16,2101.83,3706.27,2085.85Z"/><path class="cls-25" d="M1382.42,851.66c-3.07-20.77-20-39-40.81-42.78-8.52-1.53-17.75-.85-26.4-.84h-190.6c-45.52.1-58.62,25.54-58.61,68.51l0,359.66c0,5.45.2,10.91,0,16.37,1.22-6.13,8.62-18,12.74-22.19,15.87-16,37.81-13.88,58.37-13.88h180.72c22.21,0,44.69-.31,57.74,21.58,1.94,3.25,4.35,11.51,7.36,13.32L1383,869C1383,863.25,1383.25,857.37,1382.42,851.66Zm-121.89,29.92h-50.81c-8.21,0-20.9.83-28.73-.81-21.74-4.53-24.7-41,7.79-43.18,4.09-.38,8.24,0,12.34,0h47c9.92,0,21.72-1.25,29.57,6.07C1293,857.94,1283.44,881.09,1260.53,881.58Z"/><path class="cls-3" d="M1382.94,1279.62v-28.19c-3-1.81-5.42-10.07-7.36-13.32-13-21.89-35.53-21.59-57.74-21.58H1137.12c-20.56,0-42.5-2.09-58.37,13.88-4.12,4.15-11.52,16.06-12.74,22.19v25.64a139.63,139.63,0,0,0,1.07,18.74,78.61,78.61,0,0,0,2,10.24c3.41,8.21,9.89,17.78,13.12,21.23,2.16,2.31,8.33,5.45,9,8.1,14.59,9.1,31.66,7.3,48.12,7.29H1332.3c14.21-.09,26.56-4.26,36.68-14.58C1384,1313.91,1382.94,1299.22,1382.94,1279.62ZM1228.72,1299a21.9,21.9,0,1,1,17.88-25.34A21.91,21.91,0,0,1,1228.72,1299Z"/><path class="cls-26" d="M1067.08,1297a78.61,78.61,0,0,0,2,10.24C1067.44,1303.16,1066.52,1299.46,1067.08,1297Z"/><path class="cls-26" d="M1091.29,1336.54c-12.43-6.71-18.9-17.31-22.17-29.33,3.41,8.21,9.89,17.78,13.12,21.23C1084.4,1330.75,1090.57,1333.89,1091.29,1336.54Z"/><path class="cls-27" d="M1067.08,1297c-.56,2.49.36,6.19,2,10.24A78.61,78.61,0,0,1,1067.08,1297Z"/><path class="cls-28" d="M2081,1034.3c.22,28.24-12.13,36.23-30.83,55.71-19.21,20-39.2,39.25-58.89,58.79l-172.19,174.44c-13.47,14-29.17,32.14-44.7,43.43-27.79,20.22-71.65.4-69.54-35.77,1-16.56,9.2-37.82,13.92-53.92,13-44.22,33-102.06,41.22-145.83-23.28-.26-46.55,0-69.82,0-22.3,0-42.22,3.3-59.59-13.6-27.79-27-8.27-62,14-84.65,19.44-20.43,39.59-40,59.52-60l163-163.09c14.78-15,26.75-32.36,49.54-32.77,23.54-.42,44.12,19.45,44.22,43.15.07,18-28.76,102.22-35.83,124.28-5.83,18.24-12.81,36.79-17.18,55.4l85.93,0C2026.62,999.92,2070.44,992.78,2081,1034.3Z"/><path class="cls-26" d="M1782.63,127.28c8.09-4,16.4-7.54,24.53-11.46,14-6.73,28.49-17.27,44.78-13.34,7.76,1.87,47.46,21.06,53.08,24.8-.49,0-30.33-13.84-32.49-14.85-13-6.07-26.66-15.07-41.27-7.21-1.91,1-5,2.28-5.37,3.71-1.56,6.41-6.93,7.32-11.53,8.06-4.17.67-7.82,4.21-12,5.25-2.08.51-5-.4-6.86.44-1.39.64-1.69,2.62-3.27,3.22C1789.22,123.34,1785.45,128.69,1782.63,127.28Z"/><path class="cls-3" d="M1657.77,316.91c0,1.43.07,2.88,0,4.31A29.53,29.53,0,0,1,1657.77,316.91Z"/><path class="cls-3" d="M2075.87,293.75c-6.16,3-42.26,20.87-44.5,23.16-7.68.76-45.84,21.73-55.86,26.63l-104,50.32c-12.53,5.92-23.38,13.49-37.66,8.11-11-4.13-21.88-10.58-32.46-15.77-40.81-20-82.65-38-123.08-58.77-6.78-3.48-14.13-6.46-20.54-10.52-21.79-11.25-44-22-66.17-32.54-12-5.76-30.82-9.89-36.88-23.25-8.49-18.73,7.11-27.75,20.6-34.36l161.62-77.6c15.22-7.3,30.34-14.81,45.69-21.88,2.81,1.41,6.58-3.94,9.61-1.38,1.58-.6,1.88-2.58,3.27-3.22,1.83-.84,4.78.07,6.86-.44,4.17-1,7.82-4.58,12-5.25,4.6-.74,10-1.66,11.53-8.06.35-1.44,3.46-2.69,5.37-3.71,14.6-7.86,28.22,1.13,41.27,7.21,2.16,1,31.94,14.85,32.48,14.85,5.45,1,13.18,5.88,18.4,8.34l176.27,83.92c7.44,3.6,15,7,22.23,11.06,16.66,9.33,16.82,29.73,1.46,40.06"/><path class="cls-29" d="M2109.69,349.94c0,10.74-.59,21.78,0,32.5l-.65.59c-3.61-.72-7-2.52-10.65-2.75-10-.65-12.46,1-21,2.16.56-8.26,0-16.85,0-25.15V305.21c0-1,0-2,.05-2.95,0-1.74,0-4.16,0-5.9.16-1-.28-2.13,0-3.42,6-4.21,24-12.84,31.54-15.31.63.51.52,1,.64,1.75Z"/><path class="cls-30" d="M1657.77,316.9c6.41,4.07,13.76,7.05,20.54,10.53,40.43,20.74,82.27,38.76,123.08,58.77,10.58,5.19,21.5,11.64,32.46,15.77,14.28,5.38,25.14-2.19,37.66-8.11l104-50.31c10-4.91,48.18-25.88,55.85-26.65v113c0,45.52-7.93,68.53-48.73,96-73.76,49.65-190.14,48.7-266.27,5.61-25-14.17-49.12-34.62-56.37-63.66-2.66-10.68-2.25-21.52-2.24-32.43V321.22C1657.84,319.79,1657.78,318.34,1657.77,316.9Z"/><path class="cls-31" d="M2075.87,383c8.52-1.2,11-2.8,21-2.16,3.69.24,7,2,10.65,2.76l.65-.6c.88,2.11,7.27,4.6,9.42,6.4,25.25,21.17,19.27,62.49-11.07,75-46.61,19.17-80.69-49.81-37.53-77C2071.07,386.06,2074.09,384.7,2075.87,383Z"/><path class="cls-32" d="M684.86,1233.1V999.41a52.45,52.45,0,0,1-3.17-5.11c-11.2-18.65-26-19.18-45.14-19.17l-33.66,0c-8,0-16.25.42-24.16-.84a53.1,53.1,0,0,1-44.08-44.62c-1-7.11-.74-14.45-.74-21.62l0-29.54c0-18.39-1.25-35.92-19.15-46.73-2.64-1.59-5.5-2.53-8.17-4l-.25-.14H369c-11.2,0-22.7-.57-33.69,2-32.53,7.48-55.88,38.12-56,71.22l.12,280.72c0,14.47-.27,29,0,43.45,0,10.42-.69,21.32.36,31.66,3.58,35.06,36.55,67.8,72.29,67.39l.81,0,238.76,0c11.4,0,23.77.86,35-1.26,28.21-5.34,51.58-28.82,57.07-57C685.79,1255.15,684.86,1244,684.86,1233.1ZM390,1050.69c7.11-1.64,22.41-.81,30.14-.81h55.23c21.61-.48,43.28,0,64.89,0h19.29c4.57,0,9.34-.28,13.84.59,25,4.85,23.88,43-2.16,47.83-6.5,1.2-19,.42-26.12.42h-55.3l-82.65,0c-5.15,0-10.52.32-15.58-.74C367.82,1093.06,365.9,1056.22,390,1050.69Zm194.19,153.73c-9.12,9.22-24.47,7.58-36.33,7.59H428.21c-9.69,0-29.16,1.08-37.54-1.39-17.54-5.17-22.79-28.25-9.81-41.22,8.16-8.17,19.36-6.77,29.92-6.77H538.32c11.53-.42,37-2.23,44.77,5.32C593.78,1178.38,594.9,1193.56,584.15,1204.42Z"/><path class="cls-3" d="M684.86,999.41a52.45,52.45,0,0,1-3.17-5.11c-11.2-18.65-26-19.18-45.14-19.17l-33.66,0c-8,0-16.25.42-24.16-.84a53.1,53.1,0,0,1-44.08-44.62c-1-7.11-.74-14.45-.74-21.62l0-29.54c0-18.39-1.25-35.92-19.15-46.73-2.64-1.59-5.5-2.53-8.17-4l-.25-.14c30-.11,48.44,11.72,68.53,31.67l83.61,84.58C678.08,963.79,683.61,969.49,684.86,999.41Z"/><path class="cls-33" d="M1453.07,255.26c-7.79-64.87-50.23-133.8-109.92-163.25-5.64-3.74-12.6-6.45-18.82-9.09-45.7-19.39-97.6-20.87-144.83-6.18-96.75,30.1-164.29,131.16-143.7,232.56.84,4.11,3.82,19.26,5.41,22.18a68.17,68.17,0,0,0,1.91,6.66c23.41,74.27,97.21,167.36,152.55,224.89,7.33,7.61,25.36,27.32,34.24,31.89,23.54,12.1,41.71-11.58,56.29-26.58,50.84-52.25,107.34-124.23,140.33-190.46C1447.85,335.08,1458.88,303.72,1453.07,255.26Zm-109.92,22.06a99.8,99.8,0,1,1-91.68-106A99.81,99.81,0,0,1,1343.15,277.32Z"/><path class="cls-34" d="M2097.48,1853.51V1835c0-11.88-.09-21.46-8.18-31-16.7-19.72-38.71-11.32-59.44-13.52-2.68-6.47-5.54-12.66-8.75-18.87,6.33-5.14,26.84-26.35,30.11-31.3,18.17-27.53-4.5-45.27-21.6-62.44l-12.2-12.3c-7.85-7.92-14-14.76-25.56-16.38-26.7-3.75-37.1,22.87-55.75,36.07a228.55,228.55,0,0,0-21.89-8.62c-.24-19.15,4-43.76-10.42-57.84-11.72-11.47-26.08-9.92-41.11-9.91-42.23,0-65.59-2.45-65.57,47.35l0,20.4c-6.88,1.46-12.72,5.59-19,8.62-7.35-8-24.3-27-32.42-31.63-26.5-15.07-44.07,6-60.47,22.14l-10.41,10.37c-10,9.74-17.94,18.28-18.36,33-.69,23.66,21,36.47,34.87,52.47-2.1,6.25-4,12.84-6.67,18.87l-20.64,0c-39.63,0-47.13,15.24-47.11,52.71v25.55c.1,30.49,18.32,40.25,46.26,40.35,7.14,0,14.36.49,21.49,0a134,134,0,0,0,7.79,18.75c-11.87,10.23-34.36,33.89-35.37,48.43-1.33,19,13.77,29.9,25.74,42,12.35,12.49,24.85,30.87,43.23,32,19.84,1.2,38.71-22.6,52.07-36.67q9.4,4.18,19,8c1,21-4.39,42.88,13.26,58.87,13.25,12,29.4,9.65,46,9.63,38.48,0,60.78-3.46,60.8-47.93V2024c5.21-3.3,10.71-6.08,15.93-9.34l3-1.11c15.46,16.5,39.08,49.16,65.48,33.13,7.54-4.58,43.9-40.77,50.15-49.53,12.69-17.76,3.14-34.29-9.64-47.31l-12.68-12.77c-2.92-2.93-6.23-5.62-8.31-9.26,2.62-9.47,5.45-19.71,15.36-19.7l18.14,0c23.56,0,42.81-9.73,42.86-36C2098,1866.11,2097.49,1859.62,2097.48,1853.51Zm-138.12,9.89c-17.73,18.76-36.2,36.7-54.48,54.92l-18.5,18.59c-19,18.93-41.51,31.34-67.54,13.23-14.9-10.36-43.93-42.4-57.36-56.25-6.14-6.32-13.08-12.12-18.46-19.11-13.51-17.53-14.31-42.81-1.59-61,5.09-7.27,11.82-13.22,18.14-19.38l46.3-45.24c4.49-4.36,8.93-9,13.93-12.76,22.59-17.15,49.74-7.74,65.45,13.37,14.11-6.78,25.46,10.36,34.78,19.7l27.87,27.91c7,7.08,32.16,29.54,35.5,37C1991.12,1851.58,1976.94,1864.58,1959.36,1863.4Z"/><path class="cls-3" d="M1959.36,1863.4H1915c-36.54,0-37.35,1.23-37.37-32.74v-56.58c0-10.31-2.06-17.87,7.63-24.27,14.11-6.78,25.46,10.36,34.78,19.7l27.87,27.91c7,7.08,32.16,29.54,35.5,37C1991.12,1851.58,1976.94,1864.58,1959.36,1863.4Z"/><path class="cls-35" d="M385.89,1602.71a3.53,3.53,0,0,0,.65.21A4.49,4.49,0,0,1,385.89,1602.71Z"/><path class="cls-36" d="M631.21,2043.82v-277l0-125c0-5.62.41-11.71-.5-17.26-4-24.48-27.53-22-45.3-22H373.19c-26.76.12-30.48,12.45-30.52,36.57,0,5.3-.25,10.67,0,16v116.27l0,287.23c-.12,16,2.28,30.18,20,36.89,7.78.78,15.55.65,23.36.65H596.42c5.6,0,11.24.21,16.79-.65,3.37-2.53,7-4.26,10-7.3C634,2077.39,631.21,2058.4,631.21,2043.82Zm-72.09-371.74a23.36,23.36,0,1,1-21.49,25A23.37,23.37,0,0,1,559.12,1672.08Zm1.23,102a23.29,23.29,0,1,1-23.16,23.59A23.29,23.29,0,0,1,560.35,1774.07Zm-69.81,46.57a23.44,23.44,0,1,1,19.46-26.9A23.43,23.43,0,0,1,490.54,1820.64Zm-1,102.35a23,23,0,1,1,19.74-25.6A23,23,0,0,1,489.54,1923Zm-6.46-251a23.5,23.5,0,1,1-19.74,26.64A23.5,23.5,0,0,1,483.08,1672Zm-95.46-69-.33,0-.3,0-.27,0-.18,0a3.53,3.53,0,0,1-.65-.21l1.14.06,1.06.07.66.06.31,0,.59.06,1.27.15c-.9-.07-2,0-3,0Zm22.45,68.73A23.54,23.54,0,1,1,388.5,1697,23.55,23.55,0,0,1,410.07,1671.81ZM408.72,1774a23.65,23.65,0,1,1-19.09,27.54A23.65,23.65,0,0,1,408.72,1774ZM389.6,1904.21A23.14,23.14,0,1,1,416,1923.44,23.13,23.13,0,0,1,389.6,1904.21Zm163.5,134.38a7.48,7.48,0,0,1-7.46,7.45H430.15a7.47,7.47,0,0,1-7.45-7.45v-34.77a7.47,7.47,0,0,1,7.45-7.45H545.64a7.48,7.48,0,0,1,7.46,7.45Zm10.66-115.32a22.88,22.88,0,1,1,20.44-25A22.86,22.86,0,0,1,563.76,1923.27Z"/><path class="cls-3" d="M693.69,2043.85c0,20.61,1.27,44.91-25,51.24-6.32,1.53-49.11,1.88-55.48.35,3.37-2.53,7-4.26,10-7.3,10.78-10.75,8-29.74,8-44.32v-277c16.73.59,40.95-4.08,53.32,9.2,12.89,13.87,9.17,39.58,9.16,57.34Z"/><path class="cls-3" d="M362.72,2095.44c-2.83,1.56-20.82.7-24.6.67-14.71-.1-31.5,3.14-44.31-5.64-14.58-10-14.58-25.21-14.53-41l.13-225.37c0-13.8-2.05-31.72,6.28-43.51,13.9-19.7,35.15-10.76,53-13.82l.24.42c.74,1.23,2.38,7.31,3.79,4.13l0,287.23C342.57,2074.59,345,2088.73,362.72,2095.44Z"/><path class="cls-37" d="M342.71,1767.62v3.7c-1.41,3.18-3-2.9-3.79-4.13l-.24-.42A33.2,33.2,0,0,1,342.71,1767.62Z"/><path class="cls-3" d="M1316.8,1899.62c-2.11,15.22-5.3,40.23-26.56,40.62-15.36-1.17-28.25-5.57-31.62-23.15-1.44-7.51,2.23-29.85,3.23-38.95,3.12-28.24,7.26-82.2,2-110.73-9.3-50.46-44.11-94-93-110.35-2.58-9.19-5.67-18.23-10.45-26.53-1.94-3.38-4.78-6.13-6.47-9.67,6.55-.8,13.74.36,20.24,1.34a162.83,162.83,0,0,1,90.36,45.64C1324.44,1727.32,1327.7,1821,1316.8,1899.62Z"/><path class="cls-38" d="M1290.24,1975.36c0-2,0-4,0-6A52.92,52.92,0,0,1,1290.24,1975.36Z"/><path class="cls-39" d="M1364.86,2088.66a28,28,0,0,1-8,12.5c-2.11,1.94-6.09,5.56-9,6.19C1348,2107.18,1360.3,2098.44,1364.86,2088.66Z"/><path class="cls-40" d="M1364.86,2088.66a40.72,40.72,0,0,0,1.62-8A15.23,15.23,0,0,1,1364.86,2088.66Z"/><path class="cls-41" d="M1366.48,2080.7a40.72,40.72,0,0,1-1.62,8c-4.56,9.78-16.87,18.52-16.91,18.69-12.42,5.83-35.41,3.34-49.06,3.33H1033.2c-28.16-.16-33.16-17.54-33.17-41.67,0-14.29-2.13-27.94,9.48-39,8.29-7.88,17.9-8.93,28.82-8.66,3.86-13.15,12.84-39.14,24.73-44.57,3.6-1.65,8.89-.73,10.86-1.7l.14-.94c-3.46-49.2,12.92-91,41-130.81,8.08-11.45,18.58-21.9,20.66-36.39-10.6.72-21.46,1.91-31.66,5-7.52,2.24-39.32,14-44,18.12-1.91,1.66-2.63,4.56-3.83,6.72-24.45,44.09-102.26,3.45-72.42-50.1,3.83-6.88,10.86-12.77,16.38-18.37l38.31-38.46c18.16-18.43,10.88-9.11,20.33-32.29,6-14.64,17-26.72,28.25-37.46,4.26-4.06,9.66-7.3,12.61-12.54-.7-10.25-3.06-21-5.7-30.89-2-7.66-7-16.64-1-23.94,12.45-15,39.64,8.62,49.58,17.3,3.75,3.28,7,7.43,10.8,10.5l.47.36c1.69,3.54,4.53,6.29,6.47,9.67,4.78,8.3,7.87,17.34,10.45,26.53,48.93,16.31,83.74,59.89,93,110.35,5.26,28.53,1.12,82.49-2,110.73-1,9.1-4.67,31.44-3.23,38.95,3.37,17.58,16.26,22,31.62,23.15v29.08c0,2,0,4,0,6,28.46,1.81,28.48,24.64,38.62,46,32,1.15,38.05,9.65,38,41.36C1366.86,2068.76,1367.13,2074.87,1366.48,2080.7Z"/><path class="cls-40" d="M1364.86,2088.66a40.72,40.72,0,0,0,1.62-8A15.23,15.23,0,0,1,1364.86,2088.66Z"/><path class="cls-3" d="M732.22,422.49c0-2.7,0-5.39,0-8.09-.3,12.58-.34,24,.19,33.77.08,1.38.14,2.83.19,4.34C732.66,440.9,732.22,430.51,732.22,422.49Zm-1.6-162.07c.47,3,.89,6.15,1.26,9.31.07-3.43.15-6.85.25-10.28ZM641.2,577.86c-37.2,4.47-225.19,1.49-271.85,1-38.18-.39-59.8-9.36-78.52-25.87-58.16-22.77-48.62-123.63-48.64-157.9l0-135.66c19.65,14.35,62.9,34.45,73.9,50,64.57,31.66,105.22,75.29,168.75,106.88,51.63-45.1,177.46-112.78,245.74-155.93-3-19.62-8.06-36.77-16.26-49.32-42.76-65.5-119.58-51-224.89-51.18-47.93-.09-99.35-2.21-146.86,1.37C222.36,176.16,239.35,291.53,239.48,342.83l0,76.54c-.16,45.61-2,129.25,83.08,156.25,21.85,6.92,273.27,8.64,325.4,5,78.44-14.31,85.87-90.24,84.59-128.09C732.32,500,723.55,568,641.2,577.86Zm90.68-308.13c-1,48.19.22,96.46.33,144.67C733.22,371.4,737.24,315.22,731.88,269.73Z"/><path class="cls-42" d="M732.22,422.49c0-2.7,0-5.39,0-8.09-.3,12.58-.34,24,.19,33.77.08,1.38.14,2.83.19,4.34C732.66,440.9,732.22,430.51,732.22,422.49Zm-1.6-162.07c.47,3,.89,6.15,1.26,9.31.07-3.43.15-6.85.25-10.28Z"/><path class="cls-43" d="M732.4,448.17c-.53-9.73-.49-21.19-.19-33.77-.11-48.21-1.37-96.48-.33-144.67-.37-3.16-.79-6.27-1.26-9.31-68.28,43.15-194.11,110.83-245.74,155.93-63.53-31.59-104.18-75.22-168.75-106.88-11-15.57-54.25-35.67-73.9-50l0,135.66c0,34.27-9.52,135.13,48.64,157.9,18.72,16.51,40.34,25.48,78.52,25.87,46.66.47,234.65,3.45,271.85-1C723.55,568,732.32,500,732.59,452.51,732.54,451,732.48,449.55,732.4,448.17ZM471.84,578.63c-34.54-2.07-69.29-3.25-104-4.17,53.76-.21,108.35-2.4,161.94-.18,20.22-4.13,68.85-.71,94.8-.78C616.06,577.55,490.71,578.65,471.84,578.63Z"/><path class="cls-44" d="M624.58,573.5c-8.52,4-133.87,5.15-152.74,5.13-34.54-2.07-69.29-3.25-104-4.17,53.76-.21,108.35-2.4,161.94-.18C550,570.15,598.63,573.57,624.58,573.5Z"/><path class="cls-45" d="M4187.82,1223.19c-15.58,24.93-52.48,67-106.13,73-11.32,1.89-22.59,4.59-34.13,6-74.2-10.71-103.77-54.73-136.73-87.24l-104.52-102.4c-21-20.77-66.46-59.53-78.1-79.6-35.1-48.3-12.93-164.73,80-189.52,18.67,3.65,25.95,5.82,34.77,15.55,85.32,87.17,84.58,71.4,34.17,155l82.53,80.87c17,16.58,33,33.45,51.42,49.59,11.93-17.18,20.74-35.62,49.94-46.76,23.9-7.81,38.86,1.75,51.12,12.66C4143.88,1144.67,4213.45,1182.16,4187.82,1223.19Z"/></svg>